<?xml version="1.0" encoding="UTF-8" standalone="no"?>
<!-- Created with Inkscape (http://www.inkscape.org/) -->

<svg
   version="1.1"
   id="svg10862"
   width="372.66931"
   height="79.293335"
   viewBox="0 0 372.66931 79.293335"
   xmlns="http://www.w3.org/2000/svg"
   xmlns:svg="http://www.w3.org/2000/svg">
  <defs
     id="defs10866">
    <clipPath
       clipPathUnits="userSpaceOnUse"
       id="clipPath10882">
      <path
         d="M 0,0 H 280 V 60 H 0 Z"
         id="path10880" />
    </clipPath>
    <clipPath
       clipPathUnits="userSpaceOnUse"
       id="clipPath10896">
      <path
         d="M 0,0 H 280 V 60 H 0 Z"
         id="path10894" />
    </clipPath>
    <clipPath
       clipPathUnits="userSpaceOnUse"
       id="clipPath10910">
      <path
         d="M 0,0 H 280 V 60 H 0 Z"
         id="path10908" />
    </clipPath>
    <clipPath
       clipPathUnits="userSpaceOnUse"
       id="clipPath10924">
      <path
         d="M 0,0 H 280 V 60 H 0 Z"
         id="path10922" />
    </clipPath>
  </defs>
  <g
     id="g10870"
     transform="matrix(1.3333333,0,0,1.3333333,0,2.3156667e-6)">
    <g
       id="g10872">
      <g
         id="g10874">
        <g
           id="g10876">
          <g
             id="g10878"
             clip-path="url(#clipPath10882)">
            <g
               id="g10884">
              <path
                 d="M 0,0 H 59.461 V 59.469 H 0 Z"
                 style="fill:#231f20;fill-opacity:1;fill-rule:evenodd;stroke:none"
                 id="path10886" />
            </g>
          </g>
        </g>
      </g>
      <g
         id="g10888">
        <g
           id="g10890">
          <g
             id="g10892"
             clip-path="url(#clipPath10896)">
            <g
               id="g10898">
              <path
                 d="M 49.578,9.832 12.777,5.949 V 6.02 c 1.664,0.699 2.145,2.703 0.879,3.98 H 49.578 Z M 13.656,53.523 H 13.488 L 9.879,8.813 h 0.086 c 0.621,1.742 2.297,2.179 3.691,1.187 z M 33.703,16.785 c -0.156,0.078 -0.308,0.207 -0.43,0.34 -0.175,0.215 -0.75,0.109 -1.074,0.207 -0.199,0.059 -0.289,0.141 -0.304,0.106 0.097,-0.204 0.168,-0.407 0.335,-0.563 0.36,-0.34 1.446,-0.582 1.473,-0.09 M 49.578,14.082 H 31.207 v 2.539 c 0.438,-0.23 0.789,-0.433 1.254,-0.566 0.312,-0.086 0.644,-0.184 0.977,-0.149 0.48,0.047 0.656,0.371 0.605,0.707 0.422,-0.226 1.223,-0.355 1.605,-0.004 0.368,0.336 0.442,0.887 0.321,1.344 -0.43,-0.457 -0.981,-0.574 -1.563,-0.289 -0.433,0.211 -0.797,0.59 -0.996,1.027 0.188,0.219 0.793,0.047 1,-0.062 0.231,-0.117 0.434,-0.309 0.688,-0.59 -0.032,0.414 -0.082,0.801 -0.231,1.004 -0.289,0.391 -0.574,0.469 -1.058,0.641 -0.379,0.129 -0.762,0.312 -1.141,0.695 -0.324,0.434 -0.406,1.18 -0.305,1.816 0.11,0.7 0.367,1.434 0.582,2.157 0.219,0.726 0.395,1.437 0.344,2.089 1.113,0.18 2.902,-1.062 3.531,-1.57 0.7,-0.562 1.414,-1.215 1.758,-1.851 0.281,-0.52 0.363,-1.575 -0.164,-2.395 -1,-1.559 -0.457,-4.074 1.664,-4.715 1.301,-0.379 3.09,-0.015 3.895,1.438 0.781,1.41 0.961,3.004 0.937,4.672 -0.035,2.554 -0.137,4.14 0.336,6.046 0.234,0.934 0.672,1.797 1.363,2.59 -0.543,0.645 -1.453,0.199 -2.152,-0.394 -1.031,-0.883 -1.914,-2.875 -2.48,-6.078 l -0.11,0.398 c -0.027,1.93 0.227,3.402 0.641,5.125 0.422,1.742 1.035,2.758 2.531,3.898 -0.82,0.739 -1.648,0.418 -2.375,-0.128 -1.434,-1.094 -2.055,-2.34 -2.641,-4.852 l -0.109,0.141 c -0.125,1.472 0.031,2.933 0.504,4.257 0.449,1.27 1.328,2.481 2.453,3.403 -0.766,0.691 -1.601,0.234 -2.293,-0.27 -0.984,-0.711 -2.445,-2.086 -2.918,-4.781 l -0.121,0.105 c -0.051,1.543 0.094,2.93 0.426,4.122 0.34,1.218 1.375,2.668 2.41,3.363 -0.863,0.73 -1.645,0.281 -2.277,-0.203 -1.68,-1.293 -2.735,-3.117 -3.121,-5.543 l -0.149,0.078 c -0.183,2.633 -0.168,5.523 2.192,7.207 l -0.938,0.59 0.547,0.929 c 0.242,0.411 2.426,-0.707 3.312,0 0.36,0.286 0.586,0.747 0.329,1.329 l -0.051,-0.024 c -0.024,-0.41 -0.231,-0.629 -0.504,-0.738 -0.395,-0.164 -1,-0.121 -1.453,0.394 -0.875,0.594 -1.492,0.172 -1.946,0.766 -0.269,0.352 -0.261,0.66 -0.148,1.008 l -0.047,0.027 C 34.914,44.152 36.043,42.984 35.82,42.594 l -0.59,-1.031 -0.945,0.57 c -0.086,-0.692 -1.16,-4.363 -1.808,-4.61 -0.172,0.243 -0.164,0.883 -0.188,1.329 -0.035,0.617 0.25,1.066 0.188,1.933 -0.028,0.375 -0.215,0.895 -0.516,1.41 0.297,0.196 0.43,0.5 0.422,0.856 -0.008,0.394 -0.188,0.855 -0.309,1.23 -0.16,0.485 -0.297,0.848 -0.113,0.848 0.516,-0.27 1.004,-0.316 1.422,-0.195 0.605,0.171 0.988,0.75 1.535,1.031 0.629,0.324 1.168,0.269 1.891,0.543 -0.985,0.379 -1.129,1.387 -2.465,1.176 -0.805,-0.121 -2.016,-1.645 -2.235,-1.52 -0.152,0.449 -0.05,0.977 0.032,1.688 0.043,0.351 0.086,0.753 0.089,1.214 0.004,0.461 -0.031,0.981 -0.128,1.571 -0.137,0.793 -0.422,1.804 -0.883,2.886 H 31.23 C 49.297,47.484 49.43,22.188 49.578,14.082 m -8.223,4.52 c -0.371,0 -0.671,-0.321 -0.671,-0.715 0,-0.391 0.3,-0.711 0.671,-0.711 0.375,0 0.676,0.32 0.676,0.711 0,0.394 -0.301,0.715 -0.676,0.715 m -1.238,1.253 c 0.371,0 0.676,-0.32 0.676,-0.71 0,-0.395 -0.305,-0.715 -0.676,-0.715 -0.371,0 -0.676,0.32 -0.676,0.715 0,0.39 0.305,0.71 0.676,0.71 m 2.289,0.208 c 0.371,0 0.676,-0.321 0.676,-0.715 0,-0.395 -0.305,-0.715 -0.676,-0.715 -0.371,0 -0.676,0.32 -0.676,0.715 0,0.394 0.305,0.715 0.676,0.715 M 41.324,18.98 C 41.191,25.75 37.93,31.012 31.211,31.438 V 29.539 C 36.648,29.367 40.719,24 41.215,18.98 Z M 28.711,16.785 c 0.156,0.078 0.312,0.207 0.434,0.34 0.175,0.215 0.746,0.109 1.07,0.207 0.199,0.059 0.293,0.141 0.305,0.106 -0.098,-0.204 -0.168,-0.407 -0.332,-0.563 -0.36,-0.34 -1.45,-0.582 -1.477,-0.09 m 2.488,36.738 h -0.011 c -0.461,-1.082 -0.739,-2.097 -0.872,-2.886 -0.101,-0.59 -0.132,-1.11 -0.128,-1.571 0.003,-0.461 0.042,-0.863 0.085,-1.214 0.086,-0.711 0.184,-1.239 0.032,-1.688 -0.219,-0.125 -1.426,1.395 -2.231,1.52 -1.34,0.211 -1.48,-0.797 -2.465,-1.176 0.719,-0.274 1.258,-0.219 1.891,-0.543 0.547,-0.281 0.93,-0.86 1.535,-1.031 0.418,-0.121 0.903,-0.075 1.418,0.195 0.184,0 0.047,-0.363 -0.113,-0.848 -0.121,-0.375 -0.301,-0.836 -0.309,-1.23 -0.008,-0.356 0.129,-0.66 0.422,-0.856 -0.297,-0.515 -0.488,-1.035 -0.515,-1.41 -0.059,-0.867 0.222,-1.316 0.187,-1.937 -0.023,-0.442 -0.016,-1.082 -0.184,-1.325 -0.652,0.247 -1.726,3.918 -1.812,4.61 l -0.945,-0.57 -0.586,1.031 c -0.227,0.39 0.902,1.558 -0.305,2.191 L 26.25,44.758 c 0.113,-0.348 0.117,-0.656 -0.148,-1.008 -0.454,-0.594 -1.071,-0.172 -1.95,-0.766 -0.453,-0.515 -1.054,-0.558 -1.449,-0.394 -0.273,0.109 -0.48,0.328 -0.504,0.738 l -0.054,0.024 c -0.258,-0.582 -0.028,-1.043 0.332,-1.329 0.886,-0.707 3.07,0.411 3.312,0 l 0.543,-0.929 -0.934,-0.59 c 2.36,-1.684 2.372,-4.574 2.192,-7.207 l -0.152,-0.078 c -0.383,2.426 -1.442,4.25 -3.122,5.543 -0.632,0.484 -1.414,0.933 -2.277,0.203 1.039,-0.695 2.07,-2.145 2.41,-3.363 0.336,-1.192 0.477,-2.579 0.426,-4.122 l -0.121,-0.105 c -0.469,2.695 -1.934,4.07 -2.914,4.781 -0.695,0.504 -1.531,0.961 -2.297,0.27 1.129,-0.922 2.004,-2.137 2.457,-3.403 0.473,-1.324 0.625,-2.785 0.5,-4.257 l -0.105,-0.141 c -0.59,2.512 -1.207,3.754 -2.645,4.852 -0.723,0.546 -1.551,0.867 -2.371,0.128 1.492,-1.14 2.105,-2.156 2.527,-3.898 0.418,-1.723 0.668,-3.199 0.645,-5.125 l -0.11,-0.398 c -0.57,3.203 -1.453,5.195 -2.484,6.078 -0.699,0.593 -1.605,1.039 -2.148,0.394 0.691,-0.793 1.129,-1.656 1.359,-2.59 0.477,-1.906 0.371,-3.496 0.336,-6.046 -0.024,-1.672 0.156,-3.262 0.941,-4.676 0.801,-1.449 2.59,-1.813 3.891,-1.434 2.121,0.641 2.668,3.156 1.664,4.715 -0.527,0.82 -0.441,1.875 -0.16,2.395 0.344,0.636 1.058,1.289 1.754,1.851 0.629,0.508 2.422,1.75 3.535,1.57 -0.051,-0.652 0.125,-1.363 0.34,-2.089 0.219,-0.723 0.476,-1.457 0.586,-2.157 0.097,-0.636 0.015,-1.382 -0.309,-1.816 -0.375,-0.383 -0.762,-0.566 -1.141,-0.695 -0.484,-0.172 -0.769,-0.25 -1.054,-0.641 -0.153,-0.203 -0.199,-0.59 -0.235,-1.004 0.258,0.281 0.457,0.473 0.688,0.59 0.207,0.109 0.812,0.281 1.004,0.062 -0.199,-0.437 -0.563,-0.816 -1,-1.027 -0.582,-0.285 -1.133,-0.168 -1.563,0.289 -0.121,-0.457 -0.047,-1.008 0.325,-1.344 0.382,-0.351 1.179,-0.222 1.605,0.004 -0.055,-0.336 0.125,-0.66 0.605,-0.707 0.329,-0.035 0.665,0.059 0.973,0.149 0.469,0.133 0.82,0.336 1.254,0.566 z M 21.059,18.602 c 0.371,0 0.675,-0.321 0.675,-0.715 0,-0.391 -0.304,-0.715 -0.675,-0.715 -0.371,0 -0.676,0.324 -0.676,0.715 0,0.394 0.305,0.715 0.676,0.715 m 1.242,1.253 c -0.375,0 -0.676,-0.32 -0.676,-0.714 0,-0.391 0.301,-0.711 0.676,-0.711 0.371,0 0.672,0.32 0.672,0.711 0,0.394 -0.301,0.714 -0.672,0.714 m -2.293,0.208 c -0.371,0 -0.676,-0.321 -0.676,-0.715 0,-0.395 0.305,-0.715 0.676,-0.715 0.375,0 0.676,0.32 0.676,0.715 0,0.394 -0.301,0.715 -0.676,0.715 M 21.09,18.98 c 0.137,6.77 3.394,12.032 10.113,12.454 V 29.539 C 25.766,29.367 21.699,24 21.203,18.98 Z"
                 style="fill:#ffffff;fill-opacity:1;fill-rule:evenodd;stroke:none"
                 id="path10900" />
            </g>
          </g>
        </g>
      </g>
      <g
         id="g10902">
        <g
           id="g10904">
          <g
             id="g10906"
             clip-path="url(#clipPath10910)">
            <g
               id="g10912">
              <path
                 d="m 65.414,58.875 h 214.09 v 0.594 H 65.414 Z"
                 style="fill:#231f20;fill-opacity:1;fill-rule:evenodd;stroke:none"
                 id="path10914" />
            </g>
          </g>
        </g>
      </g>
      <g
         id="g10916">
        <g
           id="g10918">
          <g
             id="g10920"
             clip-path="url(#clipPath10924)">
            <g
               id="g10926">
              <path
                 d="m 276.754,51.152 c 0,0.293 -0.02,0.539 -0.352,0.871 -0.539,0.536 -1.363,0.887 -2.023,0.887 -1.113,0 -1.797,-0.703 -1.797,-1.922 0,-1.59 1.258,-1.961 4.172,-2.437 z m 2.746,2.067 -0.082,-0.391 c -0.125,0.02 -0.25,0.02 -0.352,0.02 -0.765,0 -0.886,-0.371 -0.886,-1.34 v -0.559 l 0.082,-3.449 v -0.25 c 0,-2.293 -0.891,-3.387 -3.18,-3.387 -1.262,0 -2.394,0.395 -3.266,1.137 l -0.039,1.055 h 0.164 c 0.622,-0.953 1.489,-1.426 2.602,-1.426 1.633,0 2.25,0.867 2.25,2.644 v 0.434 c -0.516,0.453 -1.73,0.535 -3.508,0.906 -1.594,0.352 -2.355,1.2 -2.355,2.645 0,1.57 0.992,2.48 2.789,2.48 1.156,0 2.168,-0.476 3.015,-1.363 0.125,0.805 0.414,1.176 1.114,1.176 0.578,0 1.093,-0.164 1.652,-0.332 m -9.312,0.336 c -1.821,-2.153 -3.411,-3.992 -4.75,-5.563 l 1.816,-1.719 c 1.094,-1.035 1.941,-1.796 2.621,-2.25 -0.289,0.04 -0.598,0.063 -0.887,0.063 -0.289,0 -0.578,-0.023 -0.886,-0.063 -2.211,2.813 -3.844,4.114 -4.215,4.114 -0.227,0 -0.328,-0.125 -0.328,-0.352 v -0.683 c 0,-2.524 0.019,-5.403 0.101,-8.672 -0.269,0.039 -0.558,0.082 -0.847,0.082 -0.27,0 -0.559,-0.043 -0.848,-0.082 0.082,2.55 0.105,5.058 0.105,7.535 0,1.941 -0.023,4.465 -0.105,7.59 0.289,-0.067 0.578,-0.11 0.848,-0.11 0.289,0 0.578,0.043 0.847,0.11 -0.101,-1.575 -0.101,-2.793 -0.101,-3.602 v -1.137 c 0,-0.183 0,-0.265 0.183,-0.265 0.309,0 1.778,1.629 4.278,5.004 0.328,-0.067 0.679,-0.086 1.031,-0.086 0.371,0 0.765,0.019 1.137,0.086 m -10.266,-3 c 0,-1.258 -0.621,-1.918 -1.942,-2.313 l -1.382,-0.414 c -1.035,-0.308 -1.532,-0.762 -1.532,-1.691 0,-1.012 0.704,-1.696 1.715,-1.696 0.805,0 1.571,0.457 2.336,1.344 0.082,-0.433 0.227,-0.847 0.434,-1.281 -0.684,-0.414 -1.551,-0.66 -2.52,-0.66 -1.902,0 -3.097,1.176 -3.097,2.789 0,1.422 0.66,2.168 2.187,2.601 l 0.93,0.27 c 1.074,0.289 1.59,0.699 1.59,1.648 0,1.137 -0.766,1.84 -1.961,1.84 -0.973,0 -1.797,-0.515 -2.461,-1.547 -0.121,0.516 -0.285,1.032 -0.492,1.567 0.699,0.476 1.609,0.726 2.621,0.726 2.148,0 3.574,-1.386 3.574,-3.183 m -6.715,-6.532 c -0.184,0.02 -0.391,0.04 -0.598,0.04 -0.207,0 -0.39,-0.02 -0.621,-0.04 -1.258,3.7 -2.23,6.157 -2.804,7.36 -0.645,-1.305 -1.551,-3.762 -2.524,-7.36 -0.207,0.04 -0.41,0.063 -0.597,0.063 -0.188,0 -0.391,-0.023 -0.598,-0.063 -0.766,2.688 -1.633,5.145 -2.645,7.379 -1.343,-3.453 -2.168,-5.914 -2.519,-7.379 -0.309,0.063 -0.621,0.082 -0.91,0.082 -0.309,0 -0.598,-0.019 -0.887,-0.082 1.941,4.711 3.117,7.895 3.512,9.532 0.207,-0.047 0.371,-0.047 0.578,-0.047 0.183,0 0.39,0 0.578,0.047 0.414,-1.739 1.238,-4.18 2.539,-7.301 1.551,4.133 2.355,6.555 2.48,7.301 0.207,-0.047 0.391,-0.067 0.579,-0.067 0.207,0 0.414,0.02 0.617,0.067 0.496,-1.883 1.84,-5.028 3.82,-9.532 m -18.051,7.129 c 0,0.293 -0.019,0.539 -0.347,0.871 -0.539,0.536 -1.368,0.887 -2.028,0.887 -1.113,0 -1.797,-0.703 -1.797,-1.922 0,-1.59 1.262,-1.961 4.172,-2.437 z m 2.75,2.067 -0.086,-0.391 c -0.121,0.02 -0.246,0.02 -0.351,0.02 -0.762,0 -0.887,-0.371 -0.887,-1.34 v -0.559 l 0.082,-3.449 v -0.25 c 0,-2.293 -0.887,-3.387 -3.18,-3.387 -1.257,0 -2.394,0.395 -3.261,1.137 l -0.043,1.055 h 0.164 c 0.621,-0.953 1.488,-1.426 2.605,-1.426 1.629,0 2.25,0.867 2.25,2.644 v 0.434 c -0.515,0.453 -1.734,0.535 -3.511,0.906 -1.59,0.352 -2.356,1.2 -2.356,2.645 0,1.57 0.992,2.48 2.789,2.48 1.156,0 2.168,-0.476 3.016,-1.363 0.125,0.805 0.414,1.176 1.117,1.176 0.578,0 1.094,-0.164 1.652,-0.332 m -9.523,-9.633 v -1.07 c -0.289,0.246 -0.762,0.656 -1.465,1.152 v -0.227 c 0,-1.918 0.039,-3.73 0.102,-5.011 -0.27,0.019 -0.579,0.039 -0.868,0.039 -0.246,0 -0.535,-0.02 -0.804,-0.039 0.082,1.668 0.101,3.57 0.101,5.711 v 0.539 c -0.597,0.414 -0.785,0.539 -1.402,0.91 v 1.047 c 0.867,-0.699 1.301,-1.071 1.383,-1.11 v 2.93 c 0,2.227 -0.039,3.918 -0.082,5.098 0.269,-0.047 0.535,-0.067 0.804,-0.067 0.289,0 0.578,0.02 0.868,0.067 -0.063,-1.285 -0.102,-4.196 -0.102,-9.039 0.617,-0.395 0.785,-0.516 1.465,-0.93 m -4.977,1.062 c -1.054,-0.535 -2.148,-0.804 -3.285,-0.804 -3.012,0 -5.016,1.961 -5.016,4.957 0,3.015 1.918,4.961 4.727,4.961 1.426,0 2.543,-0.317 3.449,-1.016 -0.019,-0.125 -0.019,-0.269 -0.019,-0.414 0,-0.207 0.019,-0.453 0.039,-0.742 -0.969,0.988 -1.918,1.465 -3.055,1.465 -2.086,0 -3.512,-1.61 -3.512,-4.278 0,-2.746 1.262,-4.293 3.387,-4.293 1.262,0 2.168,0.618 2.746,1.899 0.125,-0.641 0.313,-1.238 0.539,-1.735 m -11.441,4.254 c 0,2.77 -1.074,4.215 -3.059,4.215 -2.004,0 -3.078,-1.488 -3.078,-4.359 0,-2.852 1.074,-4.317 3.059,-4.317 2.004,0 3.078,1.528 3.078,4.461 m 1.734,-0.125 c 0,-2.929 -1.984,-4.933 -4.793,-4.933 -2.722,0 -4.789,2.004 -4.789,4.933 0,2.957 2,4.961 4.789,4.961 2.746,0 4.793,-1.941 4.793,-4.961 m -10.535,-4.75 c -0.328,-0.058 -0.578,-0.101 -0.762,-0.101 -0.992,0 -1.797,0.785 -2.519,2.312 0,-0.824 0.039,-1.57 0.101,-2.211 -0.269,0.063 -0.558,0.086 -0.843,0.086 -0.27,0 -0.559,-0.023 -0.868,-0.086 0.082,0.871 0.102,1.84 0.102,2.914 0,2.954 -0.043,5.164 -0.102,6.586 0.266,-0.039 0.516,-0.058 0.762,-0.058 0.289,0 0.598,0.019 0.887,0.086 -0.063,-0.914 -0.102,-2.278 -0.102,-4.075 0,-2.746 0.578,-4.089 2.106,-4.089 0.332,0 0.64,0.086 0.972,0.269 l 0.165,-0.101 c 0,-0.579 0.019,-1.118 0.101,-1.532 m -5.637,-4.273 c -0.226,0.062 -0.453,0.082 -0.679,0.082 -0.231,0 -0.438,-0.02 -0.641,-0.082 -1.012,3.945 -2.191,7.848 -3.512,11.668 -1.425,-3.922 -2.707,-7.828 -3.882,-11.668 -0.227,0.062 -0.454,0.082 -0.661,0.082 -0.23,0 -0.433,-0.02 -0.664,-0.082 -1.133,4.172 -2.414,8.117 -3.777,11.875 -1.32,-4.09 -2.477,-8.055 -3.512,-11.875 -0.308,0.062 -0.64,0.082 -0.949,0.082 -0.332,0 -0.66,-0.02 -0.973,-0.082 1.571,4.914 3.016,9.5 4.321,13.801 0.246,-0.067 0.472,-0.11 0.699,-0.11 0.25,0 0.476,0.043 0.703,0.11 0.598,-1.657 1.836,-5.414 3.777,-11.282 1.387,3.84 2.645,7.602 3.719,11.301 0.25,-0.086 0.477,-0.105 0.723,-0.105 0.25,0 0.476,0.019 0.703,0.086 1.508,-4.508 3.016,-9.09 4.605,-13.801 m -28.293,11.398 c 0,0.293 -0.023,0.539 -0.351,0.871 -0.539,0.536 -1.363,0.887 -2.024,0.887 -1.117,0 -1.796,-0.703 -1.796,-1.922 0,-1.59 1.257,-1.961 4.171,-2.437 z m 2.746,2.067 -0.082,-0.391 c -0.125,0.02 -0.25,0.02 -0.351,0.02 -0.766,0 -0.891,-0.371 -0.891,-1.34 v -0.559 l 0.082,-3.449 v -0.25 c 0,-2.293 -0.886,-3.387 -3.179,-3.387 -1.258,0 -2.395,0.395 -3.262,1.137 l -0.043,1.055 h 0.164 c 0.621,-0.953 1.488,-1.426 2.605,-1.426 1.629,0 2.25,0.867 2.25,2.644 v 0.434 c -0.515,0.453 -1.734,0.535 -3.511,0.906 -1.59,0.352 -2.356,1.2 -2.356,2.645 0,1.57 0.992,2.48 2.789,2.48 1.16,0 2.168,-0.476 3.016,-1.363 0.125,0.805 0.414,1.176 1.117,1.176 0.578,0 1.094,-0.164 1.652,-0.332 m -9.316,0.336 c -1.816,-2.153 -3.406,-3.992 -4.75,-5.563 l 1.82,-1.719 c 1.09,-1.035 1.938,-1.796 2.621,-2.25 -0.289,0.04 -0.601,0.063 -0.89,0.063 -0.289,0 -0.574,-0.023 -0.887,-0.063 -2.211,2.813 -3.84,4.114 -4.211,4.114 -0.226,0 -0.332,-0.125 -0.332,-0.352 v -0.683 c 0,-2.524 0.02,-5.403 0.106,-8.672 -0.27,0.039 -0.559,0.082 -0.848,0.082 -0.27,0 -0.559,-0.043 -0.848,-0.082 0.082,2.55 0.102,5.058 0.102,7.535 0,1.941 -0.02,4.465 -0.102,7.59 0.289,-0.067 0.578,-0.11 0.848,-0.11 0.289,0 0.578,0.043 0.848,0.11 -0.106,-1.575 -0.106,-2.793 -0.106,-3.602 v -1.137 c 0,-0.183 0,-0.265 0.188,-0.265 0.308,0 1.773,1.629 4.273,5.004 0.328,-0.067 0.68,-0.086 1.031,-0.086 0.371,0 0.766,0.019 1.137,0.086 m -11.441,0 c -0.063,-1.657 -0.102,-3.332 -0.102,-5.004 0,-1.551 0.039,-3.043 0.102,-4.528 -0.246,0.063 -0.535,0.082 -0.825,0.082 -0.269,0 -0.539,-0.019 -0.828,-0.082 0.063,1.465 0.102,2.977 0.102,4.528 0,1.672 -0.039,3.347 -0.102,5.004 0.289,-0.067 0.559,-0.11 0.828,-0.11 0.29,0 0.579,0.043 0.825,0.11 M 151.43,40.52 c 0,-0.579 -0.453,-1.012 -1.032,-1.012 -0.558,0 -1.035,0.433 -1.035,1.012 0,0.554 0.477,1.011 1.035,1.011 0.579,0 1.032,-0.457 1.032,-1.011 m -5.039,13.035 c -0.043,-1.141 -0.063,-2.196 -0.063,-3.184 0,-0.953 0.039,-1.941 0.039,-2.933 0,-2.418 -1.07,-3.618 -3.219,-3.618 -1.363,0 -2.398,0.645 -3.16,1.965 0,-0.25 -0.023,-0.496 -0.023,-0.742 0,-0.332 0.023,-0.664 0.043,-1.016 -0.246,0.063 -0.516,0.086 -0.805,0.086 -0.25,0 -0.539,-0.023 -0.828,-0.086 0.082,1.426 0.082,2.934 0.082,4.586 v 1.426 c 0,1.219 0,2.375 -0.082,3.516 0.289,-0.067 0.559,-0.11 0.828,-0.11 0.289,0 0.578,0.043 0.848,0.11 -0.043,-1.039 -0.043,-2.278 -0.043,-3.785 v -0.907 c 0,-1.343 0.043,-2.355 0.683,-3.14 0.454,-0.598 1.094,-0.868 1.879,-0.868 1.528,0 2.289,0.993 2.289,2.973 0,2.399 -0.039,4.317 -0.121,5.727 0.289,-0.067 0.559,-0.11 0.828,-0.11 0.266,0 0.555,0.043 0.825,0.11 m -11.008,0 c -0.043,-1.348 -0.086,-2.379 -0.086,-3.102 0,-1.199 0.062,-2.23 0.062,-3.098 0,-2.335 -1.074,-3.511 -3.218,-3.511 -1.344,0 -2.274,0.558 -3.141,1.836 0,-0.969 -0.02,-1.899 -0.02,-2.762 0,-1.297 0.02,-2.805 0.059,-4.488 -0.246,0.039 -0.535,0.082 -0.824,0.082 -0.246,0 -0.535,-0.043 -0.848,-0.082 0.063,2.367 0.106,4.875 0.106,7.539 0,1.406 -0.024,3.926 -0.106,7.586 0.27,-0.067 0.539,-0.11 0.805,-0.11 0.289,0 0.578,0.043 0.848,0.11 -0.02,-1.098 -0.04,-1.883 -0.04,-2.36 V 49.75 c 0,-1.695 0.04,-2.871 0.391,-3.574 0.453,-0.867 1.219,-1.321 2.168,-1.321 1.715,0 2.293,1.051 2.293,3.325 0,1.343 -0.043,3.14 -0.102,5.375 0.29,-0.067 0.555,-0.11 0.825,-0.11 0.289,0 0.578,0.043 0.828,0.11 m -9.852,-8.907 c -1.054,-0.535 -2.148,-0.804 -3.285,-0.804 -3.016,0 -5.019,1.961 -5.019,4.957 0,3.015 1.921,4.961 4.73,4.961 1.426,0 2.539,-0.317 3.449,-1.016 -0.019,-0.125 -0.019,-0.269 -0.019,-0.414 0,-0.207 0.019,-0.453 0.039,-0.742 -0.969,0.988 -1.922,1.465 -3.055,1.465 -2.086,0 -3.512,-1.61 -3.512,-4.278 0,-2.746 1.258,-4.293 3.387,-4.293 1.258,0 2.168,0.618 2.746,1.899 0.125,-0.641 0.309,-1.238 0.539,-1.735 m -11.402,3.305 h -5.309 c 0.082,-2.168 1.282,-3.512 2.789,-3.512 1.551,0 2.52,1.157 2.52,3.184 z m 1.633,0.27 c 0,-2.832 -1.508,-4.403 -4.071,-4.403 -2.808,0 -4.644,1.985 -4.644,4.981 0,2.91 1.918,4.937 4.769,4.937 1.239,0 2.375,-0.394 3.43,-1.16 v -0.246 c 0,-0.227 0.02,-0.496 0.039,-0.766 -0.949,0.93 -1.941,1.364 -3.117,1.364 -2.188,0 -3.387,-1.465 -3.387,-4.211 v -0.063 h 6.961 c 0,-0.144 0.02,-0.289 0.02,-0.433 m -9.09,4.851 -0.145,-0.453 c -0.578,0.289 -1.05,0.434 -1.402,0.434 -1.281,0 -1.691,-0.785 -1.691,-2.567 0,-1.836 0.082,-3.39 0.082,-4.668 0,-0.105 0.019,-0.457 0.039,-1.011 0.207,-0.024 0.453,-0.024 0.722,-0.024 0.516,0 1.137,0.024 1.86,0.063 v -0.164 c 0,-0.25 0.019,-0.477 0.062,-0.661 -1.011,0.082 -1.879,0.102 -2.625,0.102 v -1.316 c 0,-0.207 0.024,-0.723 0.063,-1.59 -0.473,0.226 -1.012,0.394 -1.629,0.496 0.019,0.535 0.039,1.094 0.039,1.687 v 0.684 c -0.414,0 -0.867,-0.023 -1.277,-0.063 0,0.082 0.019,0.184 0.019,0.309 0,0.164 -0.019,0.352 -0.043,0.539 0.352,-0.043 0.703,-0.062 1.055,-0.062 h 0.207 v 0.679 c 0,2.649 -0.106,4.485 -0.106,5.496 0,1.907 0.703,2.778 2.582,2.778 0.766,0 1.528,-0.254 2.188,-0.688 m -7.848,0.481 c -0.058,-1.657 -0.101,-3.332 -0.101,-5.004 0,-1.551 0.043,-3.043 0.101,-4.528 -0.246,0.063 -0.535,0.082 -0.824,0.082 -0.27,0 -0.539,-0.019 -0.828,-0.082 0.062,1.465 0.105,2.977 0.105,4.528 0,1.672 -0.043,3.347 -0.105,5.004 0.289,-0.067 0.558,-0.11 0.828,-0.11 0.289,0 0.578,0.043 0.824,0.11 M 99.031,40.52 c 0,-0.579 -0.453,-1.012 -1.031,-1.012 -0.559,0 -1.035,0.433 -1.035,1.012 0,0.554 0.476,1.011 1.035,1.011 0.578,0 1.031,-0.457 1.031,-1.011 M 93.992,53.555 C 93.93,51.797 93.91,48.824 93.91,44.637 c 0,-2.289 0,-4.356 0.082,-6.207 -0.265,0.019 -0.578,0.039 -0.867,0.039 -0.246,0 -0.539,-0.02 -0.805,-0.039 0.082,1.113 0.082,2.41 0.082,3.941 v 5.301 c 0,2.578 0,4.535 -0.082,5.883 0.266,-0.047 0.539,-0.067 0.805,-0.067 0.289,0 0.578,0.02 0.867,0.067 m -5.617,-4.653 c 0,2.77 -1.074,4.215 -3.059,4.215 -2,0 -3.074,-1.488 -3.074,-4.359 0,-2.852 1.074,-4.317 3.055,-4.317 2.004,0 3.078,1.528 3.078,4.461 m 1.734,-0.125 c 0,-2.929 -1.984,-4.933 -4.793,-4.933 -2.726,0 -4.789,2.004 -4.789,4.933 0,2.957 2.004,4.961 4.789,4.961 2.75,0 4.793,-1.941 4.793,-4.961 M 78.418,43.391 c 0,2.105 -1.441,3.16 -4.336,3.16 -0.309,0 -0.598,-0.024 -0.91,-0.043 v -1.817 c 0,-1.468 0.043,-2.851 0.105,-4.152 0.434,-0.043 0.848,-0.062 1.258,-0.062 2.668,0 3.883,0.742 3.883,2.914 m 1.902,-0.168 c 0,-2.231 -1.59,-3.551 -4.523,-3.551 -1.238,0 -2.356,0.144 -3.367,0.144 -0.289,0 -0.598,-0.019 -0.989,-0.062 0.082,2.148 0.122,4.441 0.122,6.918 0,2.355 -0.04,4.648 -0.122,6.883 0.348,-0.067 0.68,-0.11 1.008,-0.11 0.289,0 0.559,0.043 0.848,0.082 -0.082,-1.441 -0.102,-2.578 -0.102,-3.406 V 47.23 c 0.641,0.043 1.176,0.043 1.528,0.043 3.656,0 5.597,-1.488 5.597,-4.05"
                 style="fill:#231f20;fill-opacity:1;fill-rule:evenodd;stroke:none"
                 id="path10928" />
            </g>
          </g>
        </g>
      </g>
    </g>
  </g>
</svg>
