<?xml version="1.0" encoding="UTF-8" standalone="no"?>
<!-- Created with Inkscape (http://www.inkscape.org/) -->

<svg
   version="1.1"
   id="svg4353"
   width="132.36397"
   height="105.3903"
   viewBox="0 0 132.36397 105.39031"
   sodipodi:docname="logo-dzial-studencki.svg"
   inkscape:export-filename="../../projects/strona-organizacji-studenckich/public/logo-dzial-studencki.svg"
   inkscape:export-xdpi="96"
   inkscape:export-ydpi="96"
   inkscape:version="1.2.2 (b0a8486541, 2022-12-01)"
   xmlns:inkscape="http://www.inkscape.org/namespaces/inkscape"
   xmlns:sodipodi="http://sodipodi.sourceforge.net/DTD/sodipodi-0.dtd"
   xmlns="http://www.w3.org/2000/svg"
   xmlns:svg="http://www.w3.org/2000/svg">
  <defs
     id="defs4357">
    <clipPath
       clipPathUnits="userSpaceOnUse"
       id="clipPath4393">
      <path
         d="m 5.316,34.997 h 144.283 v 86.782 H 5.316 Z"
         id="path4391" />
    </clipPath>
  </defs>
  <sodipodi:namedview
     id="namedview4355"
     pagecolor="#ffffff"
     bordercolor="#999999"
     borderopacity="1"
     inkscape:showpageshadow="0"
     inkscape:pageopacity="0"
     inkscape:pagecheckerboard="0"
     inkscape:deskcolor="#d1d1d1"
     showgrid="false"
     inkscape:zoom="4.132259"
     inkscape:cx="13.793908"
     inkscape:cy="42.228718"
     inkscape:window-width="1916"
     inkscape:window-height="1020"
     inkscape:window-x="0"
     inkscape:window-y="32"
     inkscape:window-maximized="1"
     inkscape:current-layer="g4361" />
  <g
     id="g4361"
     inkscape:groupmode="layer"
     inkscape:label="Page 1"
     transform="matrix(1.3333333,0,0,-1.3333333,-36.753207,162.37186)">
    <g
       id="g4556">
      <g
         aria-label="DZIA"
         transform="matrix(1,0,0,-1,26.998,70.8828)"
         id="text4365"
         style="font-size:11.6888px;font-family:Lato;-inkscape-font-specification:Lato-Regular;fill:#868484">
        <path
           d="m 8.3282699,-4.1845903 q 0,0.9409483 -0.2980644,1.7124091 Q 7.7321411,-1.7007204 7.1886119,-1.1513468 6.6450827,-0.60197319 5.8794663,-0.2980644 5.1196943,0 4.1962791,0 H 1.0695252 v -8.3750251 h 3.1267539 q 0.9234152,0 1.6831872,0.3039088 0.7656164,0.2980644 1.3091456,0.8532824 0.5435292,0.5493736 0.8415936,1.3208344 0.2980644,0.7714608 0.2980644,1.7124092 z m -1.1630356,0 q 0,-0.7714608 -0.2103984,-1.3792784 Q 6.7444375,-6.1716863 6.3587071,-6.5924831 5.9729767,-7.0132799 5.4236031,-7.2353671 4.8742295,-7.4574543 4.1962791,-7.4574543 H 2.2033388 v 6.53988351 h 1.9929403 q 0.6779504,0 1.227324,-0.22208721 0.5493736,-0.2220872 0.935104,-0.6370396 0.3857304,-0.4207968 0.5961288,-1.0286144 0.2103984,-0.6078176 0.2103984,-1.3792783 z"
           id="path6579" />
        <path
           d="m 15.353239,-7.9542283 q 0,0.1928652 -0.116888,0.3740416 l -4.739808,6.65677151 h 4.786563 V 0 H 9.0062206 v -0.44417439 q 0,-0.0935104 0.029222,-0.175332 0.035066,-0.0818216 0.081822,-0.1577988 L 13.868761,-7.4516099 H 9.2283078 v -0.9234152 h 6.1249312 z"
           id="path6581" />
        <path
           d="M 17.936464,0 H 16.80265 v -8.3750251 h 1.133814 z"
           id="path6583" />
        <path
           d="m 24.523103,-3.1092208 -1.31499,-3.4072851 q -0.05844,-0.1519544 -0.122733,-0.350664 -0.06429,-0.204554 -0.122732,-0.4324856 -0.122733,0.4733964 -0.251309,0.788994 l -1.31499,3.4014407 z M 26.88424,0 H 26.00758 Q 25.855626,0 25.762115,-0.0759772 25.668605,-0.1519544 25.62185,-0.2688424 L 24.8387,-2.2910048 h -3.757949 l -0.78315,2.0221624 Q 20.262535,-0.1636432 20.16318,-0.0818216 20.063825,0 19.917715,0 h -0.87666 l 3.348842,-8.3750251 h 1.145502 z"
           id="path6585" />
      </g>
      <g
         aria-label="Ł"
         transform="matrix(1,0,0,-1,53.893929,70.8828)"
         id="text4369"
         style="font-size:11.6888px;font-family:Lato;-inkscape-font-specification:Lato-Regular;fill:#868484">
        <path
           d="M 5.9905099,-0.95263719 V 0 H 1.2390128 V -3.2319532 L 0.14611,-2.6767352 v -0.7831496 q 0,-0.1636432 0.1402656,-0.2279316 L 1.2390128,-4.1904347 V -8.3750251 H 2.366982 v 3.6702832 l 2.2500939,-1.1455024 v 0.7656164 q 0,0.1928652 -0.1636432,0.2571536 L 2.366982,-3.740416 v 2.78777881 z"
           id="path6588" />
      </g>
      <g
         aria-label="STUDENCKI
POLITECHNIKI 
WRO"
         transform="matrix(1,0,0,-1,62.718973,70.8828)"
         id="text4377"
         style="font-size:11.6888px;font-family:Lato;-inkscape-font-specification:Lato-Regular;fill:#868484">
        <path
           d="m 5.3534703,-7.0658795 q -0.0526,0.087666 -0.116888,0.1344212 -0.058444,0.040911 -0.14611,0.040911 -0.099355,0 -0.233776,-0.099355 -0.1344212,-0.099355 -0.3389752,-0.2162428 -0.1987096,-0.1227324 -0.4850851,-0.2220872 -0.2805312,-0.099355 -0.6837948,-0.099355 -0.379886,0 -0.672106,0.1051992 -0.2863756,0.099355 -0.4850852,0.2746868 -0.1928652,0.175332 -0.29222,0.4149524 -0.099355,0.233776 -0.099355,0.5084628 0,0.350664 0.1694876,0.58444 0.175332,0.2279316 0.4558632,0.3915748 0.2863756,0.1636432 0.642884,0.2863756 0.3623528,0.116888 0.7363944,0.2454648 0.3798859,0.1285768 0.7363943,0.29222 0.3623528,0.1577988 0.642884,0.4032635 0.2863756,0.2454648 0.4558632,0.6019732 0.175332,0.3565084 0.175332,0.87666 0,0.5493736 -0.1870208,1.0344588 -0.1870208,0.4792408 -0.5493736,0.83574921 -0.3565084,0.35650839 -0.8825044,0.56106239 -0.5201515,0.204554 -1.1864131,0.204554 -0.818216,0 -1.4844776,-0.29222 -0.66626161,-0.29806439 -1.139658,-0.80068279 L 0.71301679,-1.5370772 q 0.0467552,-0.064288 0.1110436,-0.1051992 0.0701328,-0.046755 0.1519544,-0.046755 0.0759772,0 0.16948761,0.064288 0.099355,0.058444 0.2220872,0.1519544 0.1227324,0.09351 0.2805312,0.204554 0.1577988,0.1110436 0.3565084,0.204554 0.204554,0.0935104 0.4617076,0.15779881 0.2571536,0.058444 0.5785956,0.058444 0.4032636,0 0.7188612,-0.1110436 0.3155976,-0.11104361 0.5318403,-0.30975321 0.2220872,-0.204554 0.3389752,-0.4850852 0.116888,-0.2805312 0.116888,-0.6253508 0,-0.379886 -0.175332,-0.6195064 Q 4.4066775,-3.243642 4.1261463,-3.4072852 3.8456152,-3.5709284 3.4832624,-3.681972 3.1209096,-3.79886 2.746868,-3.915748 2.3728264,-4.0384804 2.0104736,-4.1962791 1.6481208,-4.3540779 1.3675896,-4.6053871 1.0870584,-4.8566963 0.91172639,-5.2307379 q -0.1694876,-0.379886 -0.1694876,-0.935104 0,-0.4441744 0.1694876,-0.8591268 0.17533201,-0.4149524 0.50261841,-0.7363944 0.3331308,-0.321442 0.8123716,-0.5143072 0.4850852,-0.1928652 1.110436,-0.1928652 0.701328,0 1.2740791,0.2220872 0.5785956,0.2220872 1.0169256,0.642884 z"
           id="path6591" />
        <path
           d="M 13.068078,-7.4223879 H 10.356277 V 0 H 9.2283075 v -7.4223879 h -2.717646 v -0.9526372 h 6.5574165 z"
           id="path6593" />
        <path
           d="m 17.5332,-0.90003759 q 0.520152,0 0.92926,-0.17533201 0.409108,-0.175332 0.689639,-0.4909296 0.286376,-0.3155976 0.432486,-0.7539276 0.151954,-0.43833 0.151954,-0.964326 v -5.0904723 h 1.127969 v 5.0904723 q 0,0.7247056 -0.233776,1.344212 -0.227931,0.6195064 -0.660417,1.07536961 -0.426641,0.4500188 -1.046148,0.70717239 -0.619506,0.2571536 -1.390967,0.2571536 -0.771461,0 -1.390967,-0.2571536 -0.619506,-0.25715359 -1.051992,-0.70717239 -0.432486,-0.45586321 -0.666262,-1.07536961 -0.227931,-0.6195064 -0.227931,-1.344212 v -5.0904723 h 1.127969 v 5.0846279 q 0,0.525996 0.14611,0.964326 0.151954,0.43833 0.432486,0.7539276 0.286375,0.3155976 0.695483,0.496774 0.414953,0.17533201 0.935104,0.17533201 z"
           id="path6595" />
        <path
           d="m 30.15126,-4.1845903 q 0,0.9409483 -0.298064,1.7124091 -0.298064,0.7714608 -0.841594,1.3208344 -0.543529,0.54937361 -1.309145,0.8532824 Q 26.942685,0 26.01927,0 h -3.126754 v -8.3750251 h 3.126754 q 0.923415,0 1.683187,0.3039088 0.765616,0.2980644 1.309145,0.8532824 0.54353,0.5493736 0.841594,1.3208344 0.298064,0.7714608 0.298064,1.7124092 z m -1.163035,0 q 0,-0.7714608 -0.210399,-1.3792784 -0.210398,-0.6078176 -0.596128,-1.0286144 -0.385731,-0.4207968 -0.935104,-0.642884 -0.549374,-0.2220872 -1.227324,-0.2220872 h -1.992941 v 6.53988351 h 1.992941 q 0.67795,0 1.227324,-0.22208721 0.549373,-0.2220872 0.935104,-0.6370396 0.38573,-0.4207968 0.596128,-1.0286144 0.210399,-0.6078176 0.210399,-1.3792783 z"
           id="path6597" />
        <path
           d="M 36.942453,-0.92341519 36.936608,0 h -5.160605 v -8.3750251 h 5.160605 v 0.9234152 h -4.026791 v 2.7819344 h 3.261175 v 0.8883487 h -3.261175 v 2.85791161 z"
           id="path6599" />
        <path
           d="M 45.30579,-8.3750251 V 0 h -0.566907 q -0.134421,0 -0.227932,-0.0467552 -0.08767,-0.0467552 -0.175332,-0.1577988 l -4.845007,-6.3119519 q 0.01169,0.14611 0.01753,0.2863756 0.0058,0.1402656 0.0058,0.262998 V 0 h -0.993548 v -8.3750251 h 0.58444 q 0.07598,0 0.128577,0.011689 0.0526,0.00584 0.09351,0.029222 0.04091,0.017533 0.08182,0.058444 0.04091,0.035066 0.08767,0.09351 l 4.845008,6.3061075 q -0.01169,-0.1519544 -0.02338,-0.29222 -0.0058,-0.14611 -0.0058,-0.2746868 v -5.9320659 z"
           id="path6601" />
        <path
           d="m 53.31846,-1.7299424 q 0.09351,0 0.163643,0.075977 l 0.450019,0.4850852 q -0.514307,0.59612881 -1.250701,0.9292596 -0.73055,0.3331308 -1.770854,0.3331308 -0.900037,0 -1.636432,-0.3097532 -0.736394,-0.31559759 -1.256546,-0.87666 -0.520151,-0.5669068 -0.806527,-1.3559008 -0.286375,-0.788994 -0.286375,-1.7357867 0,-0.9467928 0.298064,-1.7357868 0.298064,-0.788994 0.835749,-1.3559008 0.543529,-0.5669068 1.297457,-0.87666 0.753928,-0.3155976 1.665654,-0.3155976 0.894193,0 1.577988,0.2863756 0.683795,0.2863756 1.203946,0.7773052 l -0.374041,0.5201516 q -0.03507,0.058444 -0.09351,0.099355 -0.0526,0.035066 -0.14611,0.035066 -0.105199,0 -0.257153,-0.1110436 -0.151955,-0.116888 -0.397419,-0.2571536 -0.245465,-0.1402656 -0.613662,-0.2513092 -0.368198,-0.116888 -0.905882,-0.116888 -0.648729,0 -1.186414,0.2279316 -0.537684,0.2220872 -0.929259,0.6487284 -0.385731,0.4266412 -0.601973,1.0403032 -0.216243,0.613662 -0.216243,1.3851228 0,0.7831495 0.222087,1.3968115 0.227932,0.613662 0.613662,1.0403032 0.391575,0.4207968 0.917571,0.642884 0.53184,0.22208721 1.145502,0.22208721 0.374042,0 0.672106,-0.0409108 0.303909,-0.0467552 0.555218,-0.14026561 0.257154,-0.09351 0.473397,-0.233776 0.222087,-0.14611 0.43833,-0.3448196 0.09935,-0.087666 0.198709,-0.087666 z"
           id="path6603" />
        <path
           d="m 56.375084,-4.7047419 h 0.426641 q 0.222087,0 0.356508,-0.0526 0.134422,-0.058444 0.245465,-0.1928652 l 2.787779,-3.155976 q 0.116888,-0.1519544 0.245465,-0.2103984 0.128577,-0.058444 0.315597,-0.058444 h 0.958482 l -3.191042,3.6059948 q -0.116888,0.1402656 -0.227932,0.233776 -0.105199,0.087666 -0.227932,0.14611 0.157799,0.0526 0.286376,0.1577988 0.128577,0.099355 0.251309,0.2629979 L 61.933108,0 h -0.981859 q -0.111044,0 -0.192865,-0.0116888 -0.07598,-0.0175332 -0.134421,-0.0467552 -0.05844,-0.0350664 -0.1052,-0.0759772 -0.04091,-0.0467552 -0.08182,-0.1051992 L 57.549808,-3.565084 q -0.116888,-0.14611 -0.251309,-0.204554 -0.134421,-0.064288 -0.409108,-0.064288 H 56.375084 V 0 h -1.127969 v -8.3750251 h 1.127969 z"
           id="path6605" />
        <path
           d="m 64.118912,0 h -1.133814 v -8.3750251 h 1.133814 z"
           id="path6607" />
        <path
           d="m -21.250238,9.9939239 q 0.485085,0 0.853282,-0.1285768 0.374042,-0.1285768 0.625351,-0.3565084 0.257154,-0.233776 0.38573,-0.555218 0.128577,-0.321442 0.128577,-0.7071724 0,-0.8006828 -0.496774,-1.2507016 -0.490929,-0.4500188 -1.496166,-0.4500188 h -1.344212 v 3.448196 z m 0,-4.3423892 q 0.794838,0 1.379278,0.1870208 0.590285,0.1811764 0.976015,0.5201516 0.38573,0.3389752 0.572751,0.818216 0.192865,0.4792408 0.192865,1.0695252 0,0.58444 -0.204554,1.0695252 -0.204554,0.4850852 -0.601973,0.8357495 -0.391575,0.350664 -0.976015,0.549373 -0.578595,0.192865 -1.338367,0.192865 h -1.344212 v 3.132599 h -1.127969 V 5.6515347 Z"
           id="path6609" />
        <path
           d="m -8.9711548,9.8419695 q 0,0.9409485 -0.2980644,1.7299425 -0.2980644,0.783149 -0.8415938,1.350056 -0.543529,0.566907 -1.309145,0.882505 -0.759772,0.309753 -1.683188,0.309753 -0.923415,0 -1.683187,-0.309753 -0.759772,-0.315598 -1.303301,-0.882505 -0.543529,-0.566907 -0.841594,-1.350056 -0.298064,-0.788994 -0.298064,-1.7299425 0,-0.9409484 0.298064,-1.724098 0.298065,-0.788994 0.841594,-1.3559008 0.543529,-0.5727512 1.303301,-0.8883488 0.759772,-0.3155976 1.683187,-0.3155976 0.923416,0 1.683188,0.3155976 0.765616,0.3155976 1.309145,0.8883488 0.5435294,0.5669068 0.8415938,1.3559008 0.2980644,0.7831496 0.2980644,1.724098 z m -1.1630352,0 q 0,-0.7714608 -0.210399,-1.3851228 -0.210398,-0.613662 -0.596129,-1.0344588 -0.38573,-0.4266412 -0.935104,-0.6545728 -0.549373,-0.2279316 -1.227324,-0.2279316 -0.672106,0 -1.221479,0.2279316 -0.549374,0.2279316 -0.940949,0.6545728 -0.38573,0.4207968 -0.596128,1.0344588 -0.210399,0.613662 -0.210399,1.3851228 0,0.7714605 0.210399,1.3851225 0.210398,0.607818 0.596128,1.034459 0.391575,0.420797 0.940949,0.648728 0.549373,0.222088 1.221479,0.222088 0.677951,0 1.227324,-0.222088 0.549374,-0.227931 0.935104,-0.648728 0.385731,-0.426641 0.596129,-1.034459 0.210399,-0.613662 0.210399,-1.3851225 z"
           id="path6611" />
        <path
           d="M -2.6066024,13.073923 V 14.02656 H -7.3580995 V 5.6515347 h 1.1279692 v 7.4223883 z"
           id="path6613" />
        <path
           d="M -0.22793159,14.02656 H -1.3617452 V 5.6515347 h 1.13381361 z"
           id="path6615" />
        <path
           d="M 7.5743423,6.6041719 H 4.8625408 V 14.02656 H 3.7345716 V 6.6041719 H 1.0169256 V 5.6515347 h 6.5574167 z"
           id="path6617" />
        <path
           d="m 13.997338,13.103145 -0.0058,0.923415 H 8.8308882 V 5.6515347 H 13.991493 V 6.5749499 H 9.9647018 V 9.3568843 H 13.225877 V 10.245233 H 9.9647018 v 2.857912 z"
           id="path6619" />
        <path
           d="m 21.291149,12.296617 q 0.09351,0 0.163643,0.07598 l 0.450019,0.485085 q -0.514307,0.596129 -1.250702,0.929259 -0.73055,0.333131 -1.770853,0.333131 -0.900037,0 -1.636432,-0.309753 -0.736394,-0.315598 -1.256546,-0.87666 -0.520151,-0.566907 -0.806527,-1.355901 -0.286376,-0.788994 -0.286376,-1.7357865 0,-0.9467928 0.298065,-1.7357868 0.298064,-0.788994 0.835749,-1.3559008 0.543529,-0.5669068 1.297457,-0.87666 0.753927,-0.3155976 1.665654,-0.3155976 0.894193,0 1.577988,0.2863756 0.683794,0.2863756 1.203946,0.7773052 l -0.374042,0.5201516 q -0.03507,0.058444 -0.09351,0.099355 -0.0526,0.035066 -0.14611,0.035066 -0.105199,0 -0.257154,-0.1110436 -0.151954,-0.116888 -0.397419,-0.2571536 -0.245465,-0.1402656 -0.613662,-0.2513092 -0.368197,-0.116888 -0.905882,-0.116888 -0.648728,0 -1.186413,0.2279316 -0.537685,0.2220872 -0.929259,0.6487284 -0.385731,0.4266412 -0.601974,1.0403032 -0.216242,0.613662 -0.216242,1.3851228 0,0.7831495 0.222087,1.3968115 0.227931,0.613662 0.613662,1.040303 0.391575,0.420797 0.917571,0.642884 0.53184,0.222087 1.145502,0.222087 0.374042,0 0.672106,-0.04091 0.303909,-0.04676 0.555218,-0.140266 0.257153,-0.09351 0.473396,-0.233776 0.222087,-0.14611 0.43833,-0.34482 0.09936,-0.08767 0.19871,-0.08767 z"
           id="path6621" />
        <path
           d="M 30.00515,5.6515347 V 14.02656 H 28.871336 V 10.216011 H 24.353615 V 14.02656 H 23.219801 V 5.6515347 h 1.133814 v 3.7345716 h 4.517721 V 5.6515347 Z"
           id="path6623" />
        <path
           d="M 38.923704,5.6515347 V 14.02656 h -0.566907 q -0.134421,0 -0.227931,-0.04675 -0.08767,-0.04676 -0.175332,-0.157799 L 33.108526,7.5100539 q 0.01169,0.14611 0.01753,0.2863756 0.0058,0.1402656 0.0058,0.262998 V 14.02656 H 32.138356 V 5.6515347 h 0.58444 q 0.07598,0 0.128576,0.011689 0.0526,0.00584 0.09351,0.029222 0.04091,0.017533 0.08182,0.058444 0.04091,0.035066 0.08767,0.09351 l 4.845008,6.3061071 q -0.01169,-0.151954 -0.02338,-0.29222 -0.0058,-0.14611 -0.0058,-0.274686 V 5.6515347 Z"
           id="path6625" />
        <path
           d="M 42.190724,14.02656 H 41.05691 V 5.6515347 h 1.133814 z"
           id="path6627" />
        <path
           d="m 45.457744,9.3218179 h 0.426642 q 0.222087,0 0.356508,-0.0526 0.134421,-0.058444 0.245465,-0.1928652 l 2.787779,-3.155976 q 0.116888,-0.1519544 0.245464,-0.2103984 0.128577,-0.058444 0.315598,-0.058444 h 0.958482 l -3.191043,3.6059948 q -0.116888,0.1402656 -0.227931,0.233776 -0.1052,0.087666 -0.227932,0.14611 0.157799,0.0526 0.286376,0.1577988 0.128576,0.099355 0.251309,0.2629977 l 3.331308,3.968348 H 50.03391 q -0.111044,0 -0.192866,-0.01169 -0.07598,-0.01753 -0.134421,-0.04675 -0.05844,-0.03507 -0.105199,-0.07598 -0.04091,-0.04676 -0.08182,-0.1052 l -2.887133,-3.325463 q -0.116888,-0.14611 -0.251309,-0.204554 -0.134422,-0.06429 -0.409108,-0.06429 H 45.457744 V 14.02656 H 44.329775 V 5.6515347 h 1.127969 z"
           id="path6629" />
        <path
           d="M 53.208588,14.02656 H 52.074774 V 5.6515347 h 1.133814 z"
           id="path6631" />
        <path
           d="m -23.412667,19.678095 -2.612447,8.375025 h -1.016926 l -2.121517,-6.387929 q -0.02922,-0.09351 -0.05844,-0.19871 -0.02338,-0.105199 -0.0526,-0.222087 -0.02922,0.116888 -0.05844,0.222087 -0.02922,0.105199 -0.05844,0.19871 l -2.133206,6.387929 h -1.016926 l -2.612447,-8.375025 h 0.940949 q 0.151954,0 0.251309,0.07598 0.105199,0.07598 0.134421,0.192865 l 1.729942,5.821022 q 0.04091,0.157799 0.07598,0.338975 0.04091,0.181177 0.07598,0.385731 0.04091,-0.204554 0.08182,-0.385731 0.04676,-0.18702 0.09935,-0.338975 l 1.969563,-5.821022 q 0.03507,-0.09935 0.134421,-0.181176 0.105199,-0.08767 0.251309,-0.08767 h 0.327287 q 0.151954,0 0.245464,0.07598 0.09351,0.07598 0.140266,0.192865 l 1.963718,5.821022 q 0.0526,0.151955 0.09351,0.327287 0.04676,0.175332 0.08767,0.368197 0.02922,-0.192865 0.06429,-0.368197 0.03507,-0.175332 0.07598,-0.327287 l 1.735787,-5.821022 q 0.02922,-0.105199 0.128577,-0.187021 0.105199,-0.08182 0.251309,-0.08182 z"
           id="path6633" />
        <path
           d="m -19.041055,23.734108 q 0.490929,0 0.864971,-0.116888 0.379886,-0.122732 0.631195,-0.338975 0.257154,-0.222087 0.385731,-0.525996 0.128576,-0.303909 0.128576,-0.672106 0,-0.748083 -0.490929,-1.127969 -0.49093,-0.379886 -1.472789,-0.379886 h -1.239013 v 3.16182 z m 3.868993,4.319012 h -1.005237 q -0.309753,0 -0.455863,-0.239621 l -2.174117,-2.992333 q -0.09935,-0.140265 -0.216243,-0.198709 -0.111044,-0.06429 -0.350664,-0.06429 h -0.859127 v 3.494951 h -1.127969 v -8.375025 h 2.366982 q 0.794838,0 1.373434,0.163643 0.578596,0.157799 0.952637,0.461707 0.379886,0.303909 0.561063,0.736395 0.181176,0.426641 0.181176,0.958481 0,0.444175 -0.140266,0.829905 -0.140265,0.385731 -0.409108,0.695484 -0.262998,0.303909 -0.648728,0.520151 -0.379886,0.216243 -0.864971,0.327287 0.216243,0.122732 0.374041,0.356508 z"
           id="path6635" />
        <path
           d="m -5.5697133,23.868529 q 0,0.940949 -0.2980644,1.729943 -0.2980644,0.783149 -0.8415936,1.350056 -0.5435292,0.566907 -1.3091455,0.882504 -0.759772,0.309754 -1.6831872,0.309754 -0.923415,0 -1.683187,-0.309754 -0.759772,-0.315597 -1.303301,-0.882504 -0.54353,-0.566907 -0.841594,-1.350056 -0.298064,-0.788994 -0.298064,-1.729943 0,-0.940948 0.298064,-1.724098 0.298064,-0.788994 0.841594,-1.3559 0.543529,-0.572752 1.303301,-0.888349 0.759772,-0.315598 1.683187,-0.315598 0.9234152,0 1.6831872,0.315598 0.7656163,0.315597 1.3091455,0.888349 0.5435292,0.566906 0.8415936,1.3559 0.2980644,0.78315 0.2980644,1.724098 z m -1.1630356,0 q 0,-0.77146 -0.2103984,-1.385122 -0.2103984,-0.613662 -0.5961288,-1.034459 -0.3857303,-0.426641 -0.9351039,-0.654573 -0.5493736,-0.227932 -1.227324,-0.227932 -0.672106,0 -1.22148,0.227932 -0.549373,0.227932 -0.940948,0.654573 -0.38573,0.420797 -0.596129,1.034459 -0.210398,0.613662 -0.210398,1.385122 0,0.771461 0.210398,1.385123 0.210399,0.607818 0.596129,1.034459 0.391575,0.420797 0.940948,0.648728 0.549374,0.222087 1.22148,0.222087 0.6779504,0 1.227324,-0.222087 0.5493736,-0.227931 0.9351039,-0.648728 0.3857304,-0.426641 0.5961288,-1.034459 0.2103984,-0.613662 0.2103984,-1.385123 z"
           id="path6637" />
      </g>
      <g
         aria-label="CŁ"
         transform="matrix(1,0,0,-1,58.511005,42.82968)"
         id="text4381"
         style="font-size:11.6888px;font-family:Lato;-inkscape-font-specification:Lato-Regular;fill:#868484">
        <path
           d="m 6.9489915,-1.7299424 q 0.09351,0 0.1636432,0.075977 L 7.5626535,-1.16888 q -0.5143072,0.59612881 -1.2507016,0.9292596 -0.73055,0.3331308 -1.7708532,0.3331308 -0.9000375,0 -1.6364319,-0.3097532 -0.7363944,-0.31559759 -1.256546,-0.87666 -0.5201516,-0.5669068 -0.80652721,-1.3559008 -0.2863756,-0.788994 -0.2863756,-1.7357867 0,-0.9467928 0.2980644,-1.7357868 0.29806441,-0.788994 0.83574921,-1.3559008 0.5435292,-0.5669068 1.2974568,-0.87666 0.7539276,-0.3155976 1.6656539,-0.3155976 0.8941932,0 1.577988,0.2863756 0.6837948,0.2863756 1.2039464,0.7773052 l -0.3740416,0.5201516 q -0.035066,0.058444 -0.09351,0.099355 -0.0526,0.035066 -0.14611,0.035066 -0.1051992,0 -0.2571536,-0.1110436 -0.1519544,-0.116888 -0.3974192,-0.2571536 -0.2454648,-0.1402656 -0.613662,-0.2513092 -0.3681972,-0.116888 -0.905882,-0.116888 -0.6487283,0 -1.1864131,0.2279316 -0.5376848,0.2220872 -0.9292596,0.6487284 -0.3857304,0.4266412 -0.6019732,1.0403032 -0.2162428,0.613662 -0.2162428,1.3851228 0,0.7831495 0.2220872,1.3968115 0.2279316,0.613662 0.613662,1.0403032 0.3915748,0.4207968 0.9175708,0.642884 0.5318404,0.22208721 1.1455023,0.22208721 0.3740416,0 0.672106,-0.0409108 0.3039088,-0.0467552 0.555218,-0.14026561 0.2571536,-0.09351 0.4733964,-0.233776 0.2220872,-0.14611 0.43833,-0.3448196 0.099355,-0.087666 0.1987096,-0.087666 z"
           id="path6640" />
        <path
           d="M 14.616844,-0.95263719 V 0 H 9.865347 v -3.2319532 l -1.0929028,0.555218 v -0.7831496 q 0,-0.1636432 0.1402656,-0.2279316 L 9.865347,-4.1904347 v -4.1845904 h 1.127969 v 3.6702832 l 2.250094,-1.1455024 v 0.7656164 q 0,0.1928652 -0.163643,0.2571536 l -2.086451,1.0870583 v 2.78777881 z"
           id="path6642" />
      </g>
      <g
         aria-label="AWSKIEJ"
         transform="matrix(1,0,0,-1,74.127242,42.82968)"
         id="text4385"
         style="font-size:11.6888px;font-family:Lato;-inkscape-font-specification:Lato-Regular;fill:#868484">
        <path
           d="m 5.5171135,-3.1092208 -1.31499,-3.4072851 q -0.058444,-0.1519544 -0.1227323,-0.350664 -0.064288,-0.204554 -0.1227324,-0.4324856 -0.1227324,0.4733964 -0.2513092,0.788994 l -1.31499,3.4014407 z M 7.8782511,0 h -0.87666 Q 6.8496367,0 6.7561263,-0.0759772 6.6626159,-0.1519544 6.6158607,-0.2688424 L 5.8327111,-2.2910048 H 2.074762 L 1.2916124,-0.2688424 Q 1.256546,-0.1636432 1.1571912,-0.0818216 1.0578364,0 0.91172639,0 H 0.0350664 l 3.3488412,-8.3750251 h 1.1455023 z"
           id="path6645" />
        <path
           d="M 20.139802,-8.3750251 17.527355,0 H 16.51043 l -2.121518,-6.3879291 q -0.02922,-0.09351 -0.05844,-0.1987096 -0.02338,-0.1051992 -0.0526,-0.2220872 -0.02922,0.116888 -0.05844,0.2220872 -0.02922,0.1051992 -0.05844,0.1987096 L 12.027775,0 H 11.010849 L 8.3984024,-8.3750251 h 0.9409484 q 0.1519544,0 0.2513092,0.075977 0.1051992,0.075977 0.1344212,0.1928652 l 1.7299428,5.8210223 q 0.04091,0.1577988 0.07598,0.3389752 0.04091,0.1811764 0.07598,0.3857304 0.04091,-0.204554 0.08182,-0.3857304 0.04675,-0.1870208 0.09935,-0.3389752 l 1.969563,-5.8210223 q 0.03507,-0.099355 0.134421,-0.1811764 0.1052,-0.087666 0.25131,-0.087666 h 0.327286 q 0.151954,0 0.245465,0.075977 0.09351,0.075977 0.140265,0.1928652 l 1.963719,5.8210223 q 0.0526,0.1519544 0.09351,0.3272864 0.04676,0.175332 0.08767,0.3681972 0.02922,-0.1928652 0.06429,-0.3681972 0.03507,-0.175332 0.07598,-0.3272864 l 1.735786,-5.8210223 q 0.02922,-0.1051992 0.128577,-0.1870208 0.105199,-0.081822 0.251309,-0.081822 z"
           id="path6647" />
        <path
           d="m 26.416687,-7.0658795 q -0.0526,0.087666 -0.116888,0.1344212 -0.05844,0.040911 -0.146109,0.040911 -0.09936,0 -0.233776,-0.099355 -0.134422,-0.099355 -0.338976,-0.2162428 -0.198709,-0.1227324 -0.485085,-0.2220872 -0.280531,-0.099355 -0.683795,-0.099355 -0.379886,0 -0.672106,0.1051992 -0.286375,0.099355 -0.485085,0.2746868 -0.192865,0.175332 -0.29222,0.4149524 -0.09935,0.233776 -0.09935,0.5084628 0,0.350664 0.169488,0.58444 0.175332,0.2279316 0.455863,0.3915748 0.286376,0.1636432 0.642884,0.2863756 0.362353,0.116888 0.736395,0.2454648 0.379886,0.1285768 0.736394,0.29222 0.362353,0.1577988 0.642884,0.4032635 0.286375,0.2454648 0.455863,0.6019732 0.175332,0.3565084 0.175332,0.87666 0,0.5493736 -0.187021,1.0344588 -0.187021,0.4792408 -0.549373,0.83574921 -0.356509,0.35650839 -0.882505,0.56106239 -0.520151,0.204554 -1.186413,0.204554 -0.818216,0 -1.484477,-0.29222 -0.666262,-0.29806439 -1.139658,-0.80068279 l 0.327286,-0.53768481 q 0.04676,-0.064288 0.111044,-0.1051992 0.07013,-0.046755 0.151954,-0.046755 0.07598,0 0.169488,0.064288 0.09935,0.058444 0.222087,0.1519544 0.122732,0.09351 0.280531,0.204554 0.157799,0.1110436 0.356508,0.204554 0.204554,0.0935104 0.461708,0.15779881 0.257154,0.058444 0.578596,0.058444 0.403263,0 0.718861,-0.1110436 0.315597,-0.11104361 0.53184,-0.30975321 0.222087,-0.204554 0.338975,-0.4850852 0.116888,-0.2805312 0.116888,-0.6253508 0,-0.379886 -0.175332,-0.6195064 -0.169487,-0.2454648 -0.450018,-0.409108 -0.280532,-0.1636432 -0.642884,-0.2746868 -0.362353,-0.116888 -0.736395,-0.233776 -0.374041,-0.1227324 -0.736394,-0.2805311 -0.362353,-0.1577988 -0.642884,-0.409108 -0.280531,-0.2513092 -0.455863,-0.6253508 -0.169488,-0.379886 -0.169488,-0.935104 0,-0.4441744 0.169488,-0.8591268 0.175332,-0.4149524 0.502618,-0.7363944 0.333131,-0.321442 0.812372,-0.5143072 0.485085,-0.1928652 1.110436,-0.1928652 0.701328,0 1.274079,0.2220872 0.578595,0.2220872 1.016925,0.642884 z"
           id="path6649" />
        <path
           d="m 30.402569,-4.7047419 h 0.426641 q 0.222087,0 0.356508,-0.0526 0.134421,-0.058444 0.245465,-0.1928652 l 2.787779,-3.155976 q 0.116888,-0.1519544 0.245465,-0.2103984 0.128576,-0.058444 0.315597,-0.058444 h 0.958482 l -3.191043,3.6059948 q -0.116888,0.1402656 -0.227931,0.233776 -0.105199,0.087666 -0.227932,0.14611 0.157799,0.0526 0.286376,0.1577988 0.128577,0.099355 0.251309,0.2629979 L 35.960593,0 h -0.981859 q -0.111044,0 -0.192865,-0.0116888 -0.07598,-0.0175332 -0.134422,-0.0467552 -0.05844,-0.0350664 -0.105199,-0.0759772 -0.04091,-0.0467552 -0.08182,-0.1051992 L 31.577293,-3.565084 q -0.116888,-0.14611 -0.251309,-0.204554 -0.134421,-0.064288 -0.409108,-0.064288 H 30.402569 V 0 h -1.12797 v -8.3750251 h 1.12797 z"
           id="path6651" />
        <path
           d="m 38.952927,0 h -1.133814 v -8.3750251 h 1.133814 z"
           id="path6653" />
        <path
           d="M 47.088331,-0.92341519 47.082486,0 h -5.160605 v -8.3750251 h 5.160605 v 0.9234152 h -4.026791 v 2.7819344 h 3.261175 v 0.8883487 h -3.261175 v 2.85791161 z"
           id="path6655" />
        <path
           d="m 52.359979,-2.892978 q 0,0.701328 -0.175332,1.256546 -0.169488,0.555218 -0.508463,0.94094841 -0.333131,0.37988599 -0.82406,0.58443999 -0.49093,0.204554 -1.127969,0.204554 -0.578596,0 -1.180569,-0.1636432 0.01169,-0.1694876 0.02922,-0.3331308 0.01753,-0.16948759 0.02922,-0.33313079 0.01169,-0.0993548 0.07013,-0.1577988 0.06429,-0.0642884 0.192865,-0.0642884 0.105199,0 0.274687,0.0525996 0.175332,0.0525996 0.467552,0.0525996 0.38573,0 0.689639,-0.116888 0.303909,-0.11688801 0.508463,-0.36235281 0.204554,-0.2454648 0.309753,-0.6253508 0.111043,-0.3857304 0.111043,-0.9117264 v -5.5054247 h 1.133814 z"
           id="path6657" />
      </g>
      <g
         id="g4387">
        <g
           id="g4389"
           clip-path="url(#clipPath4393)">
          <g
             id="g4395"
             transform="translate(91.9711,97.5615)">
            <path
               d="m 0,0 c -0.517,-0.774 -1.129,-1.501 -1.823,-2.169 l 0.017,-0.016 -0.644,-0.549 c -2.875,-2.454 -6.705,-3.806 -10.784,-3.806 -4.06,0 -7.88,1.342 -10.752,3.778 -2.871,2.436 -4.454,5.675 -4.454,9.119 0,0.255 0.01,0.513 0.028,0.77 0.002,0.034 0.004,0.069 0.006,0.107 l 0.002,0.01 c 0.002,0.024 0.004,0.046 0.006,0.07 v 0.012 c 0.004,0.053 0.01,0.107 0.016,0.161 0.004,0.042 0.008,0.089 0.014,0.135 0.008,0.07 0.018,0.139 0.026,0.209 0.005,0.04 0.011,0.085 0.017,0.129 0.008,0.056 0.018,0.121 0.028,0.185 0.006,0.036 0.012,0.07 0.018,0.103 0.01,0.06 0.022,0.124 0.034,0.187 0.008,0.036 0.014,0.074 0.022,0.11 0.006,0.032 0.012,0.063 0.02,0.095 0.008,0.042 0.018,0.09 0.028,0.135 0.01,0.04 0.019,0.086 0.029,0.13 0.012,0.049 0.024,0.101 0.038,0.151 0.088,0.352 0.195,0.706 0.316,1.05 l 0.004,0.008 c 0.016,0.045 0.032,0.091 0.05,0.137 0.014,0.038 0.028,0.077 0.044,0.117 0.085,0.225 0.183,0.452 0.284,0.672 0.014,0.03 0.028,0.064 0.044,0.096 0.016,0.034 0.032,0.069 0.05,0.103 0.019,0.044 0.041,0.09 0.065,0.137 0.018,0.036 0.038,0.076 0.058,0.116 l 0.01,0.018 0.083,0.161 c 0.022,0.039 0.042,0.077 0.064,0.117 0.384,0.702 0.849,1.38 1.382,2.016 l 0.086,0.102 c 0.061,0.071 0.121,0.139 0.18,0.209 0.03,0.031 0.06,0.065 0.092,0.099 0.066,0.074 0.133,0.145 0.201,0.217 0.04,0.042 0.079,0.083 0.121,0.125 0.036,0.038 0.078,0.08 0.119,0.121 0.04,0.042 0.084,0.082 0.126,0.124 0.045,0.045 0.093,0.091 0.141,0.137 l -1.784,1.515 c -2.963,-2.766 -4.591,-6.339 -4.591,-10.096 0,-4.017 1.845,-7.793 5.194,-10.632 3.348,-2.842 7.799,-4.405 12.535,-4.405 4.751,0 9.213,1.573 12.564,4.429 0.956,0.815 1.799,1.718 2.511,2.69 z"
               style="fill:#8a8d8d;fill-opacity:1;fill-rule:nonzero;stroke:none"
               id="path4397" />
          </g>
          <g
             id="g4399"
             transform="translate(69.2828,95.8995)">
            <path
               d="m 0,0 c 2.525,-2.142 5.882,-3.323 9.455,-3.323 0.112,0 0.223,0.002 0.335,0.006 0.057,0 0.111,0.002 0.165,0.002 h 0.008 c 0.083,0.004 0.165,0.008 0.246,0.012 0.066,0.002 0.131,0.006 0.197,0.01 0.034,0.002 0.062,0.004 0.089,0.004 l 0.044,0.004 c 0.06,0.004 0.121,0.008 0.183,0.014 0.054,0.004 0.104,0.008 0.155,0.012 0.038,0.004 0.07,0.006 0.1,0.01 l 0.069,0.006 c 0.044,0.004 0.088,0.01 0.132,0.014 0.165,0.018 0.328,0.037 0.487,0.059 0.043,0.008 0.087,0.014 0.131,0.02 l 0.016,0.002 c 0.036,0.006 0.069,0.01 0.103,0.016 l 0.018,0.004 c 0.046,0.006 0.092,0.014 0.135,0.022 0.122,0.02 0.239,0.04 0.356,0.064 0.08,0.013 0.157,0.029 0.235,0.047 l 0.01,0.002 c 0.02,0.004 0.04,0.008 0.06,0.012 0.059,0.012 0.111,0.024 0.163,0.036 0.045,0.01 0.089,0.02 0.131,0.03 0.038,0.008 0.069,0.016 0.101,0.024 0.032,0.008 0.056,0.012 0.08,0.02 l 0.018,0.004 c 0.034,0.007 0.065,0.015 0.099,0.023 0.056,0.014 0.104,0.028 0.151,0.04 0.038,0.01 0.074,0.02 0.11,0.03 0.111,0.03 0.222,0.062 0.334,0.095 0.03,0.01 0.059,0.018 0.087,0.028 l 0.022,0.006 c 0.04,0.012 0.076,0.022 0.109,0.034 0.054,0.018 0.104,0.034 0.154,0.05 0.041,0.014 0.077,0.026 0.113,0.038 0.07,0.023 0.129,0.043 0.193,0.065 l 0.185,0.068 c 0.059,0.022 0.115,0.042 0.171,0.063 0.032,0.012 0.059,0.024 0.087,0.034 l 0.028,0.01 c 0.044,0.018 0.092,0.038 0.137,0.056 0.281,0.113 0.559,0.236 0.826,0.364 0.029,0.016 0.057,0.03 0.085,0.042 0.062,0.029 0.123,0.061 0.185,0.091 l 0.304,0.161 c 0.135,0.072 0.277,0.151 0.426,0.239 0.042,0.024 0.083,0.049 0.125,0.073 l 0.018,0.01 c 0.03,0.02 0.062,0.038 0.091,0.058 l 0.01,0.006 c 0.022,0.014 0.046,0.028 0.068,0.042 l 0.008,0.004 c 0.038,0.023 0.077,0.047 0.115,0.071 0.042,0.028 0.084,0.054 0.124,0.082 0.029,0.018 0.051,0.033 0.077,0.049 l 0.028,0.02 c 0.042,0.028 0.083,0.056 0.127,0.086 0.044,0.03 0.086,0.057 0.127,0.087 l 0.012,0.008 c 0.08,0.056 0.159,0.114 0.239,0.173 0.024,0.018 0.05,0.036 0.074,0.054 L 16.483,1.01 c -1.959,-1.416 -4.44,-2.191 -7.028,-2.191 -5.981,0 -10.847,4.128 -10.847,9.201 0,2.471 1.139,4.794 3.21,6.534 0.972,0.817 2.135,1.479 3.392,1.935 L 3.313,18.098 C 2.104,17.565 1,16.883 0.03,16.063 -2.515,13.918 -3.915,11.062 -3.915,8.02 -3.915,4.989 -2.525,2.142 0,0"
               style="fill:#8a8d8d;fill-opacity:1;fill-rule:nonzero;stroke:none"
               id="path4401" />
          </g>
          <g
             id="g4403"
             transform="translate(93.9074,106.7419)">
            <path
               d="m 0,0 c 0,4.017 -1.843,7.793 -5.192,10.633 -3.349,2.841 -7.801,4.404 -12.536,4.404 -4.752,0 -9.215,-1.573 -12.565,-4.428 -0.955,-0.814 -1.798,-1.718 -2.51,-2.691 l 1.842,-1.561 c 0.517,0.774 1.129,1.502 1.823,2.17 l -0.02,0.016 0.647,0.549 c 2.875,2.455 6.705,3.806 10.783,3.806 4.061,0 7.879,-1.343 10.752,-3.779 2.872,-2.436 4.455,-5.673 4.455,-9.119 0,-0.255 -0.01,-0.513 -0.028,-0.77 -0.002,-0.033 -0.006,-0.069 -0.008,-0.107 -0.002,-0.026 -0.004,-0.052 -0.006,-0.077 v -0.014 c -0.006,-0.054 -0.012,-0.108 -0.016,-0.16 -0.006,-0.043 -0.01,-0.091 -0.016,-0.139 -0.008,-0.065 -0.016,-0.137 -0.026,-0.206 -0.004,-0.04 -0.01,-0.084 -0.018,-0.13 -0.006,-0.057 -0.018,-0.121 -0.028,-0.185 -0.006,-0.035 -0.012,-0.069 -0.018,-0.103 -0.007,-0.06 -0.019,-0.123 -0.033,-0.187 -0.006,-0.036 -0.014,-0.072 -0.02,-0.109 -0.008,-0.032 -0.014,-0.064 -0.022,-0.096 -0.006,-0.042 -0.018,-0.089 -0.028,-0.135 -0.008,-0.04 -0.018,-0.086 -0.03,-0.129 -0.01,-0.05 -0.022,-0.102 -0.036,-0.151 -0.089,-0.352 -0.194,-0.706 -0.318,-1.05 -0.016,-0.048 -0.034,-0.096 -0.051,-0.146 -0.014,-0.037 -0.03,-0.075 -0.044,-0.117 -0.088,-0.227 -0.183,-0.453 -0.285,-0.672 -0.013,-0.03 -0.027,-0.062 -0.043,-0.093 -0.016,-0.036 -0.032,-0.072 -0.05,-0.108 -0.02,-0.042 -0.044,-0.089 -0.068,-0.135 -0.015,-0.036 -0.037,-0.076 -0.057,-0.115 l -0.008,-0.018 c -0.028,-0.054 -0.056,-0.108 -0.086,-0.159 -0.02,-0.04 -0.041,-0.08 -0.063,-0.12 -0.384,-0.702 -0.847,-1.38 -1.38,-2.016 l -0.086,-0.101 c -0.062,-0.072 -0.121,-0.14 -0.183,-0.207 -0.028,-0.034 -0.059,-0.068 -0.089,-0.102 -0.068,-0.073 -0.134,-0.145 -0.201,-0.216 -0.04,-0.042 -0.08,-0.084 -0.121,-0.126 -0.036,-0.035 -0.074,-0.075 -0.112,-0.113 L -6.107,-8.32 C -6.149,-8.36 -6.19,-8.404 -6.232,-8.443 -6.28,-8.489 -6.326,-8.535 -6.375,-8.58 l 1.785,-1.516 C -1.627,-7.33 0,-3.756 0,0"
               style="fill:#8a8d8d;fill-opacity:1;fill-rule:nonzero;stroke:none"
               id="path4405" />
          </g>
          <g
             id="g4407"
             transform="translate(80.4241,98.2728)">
            <path
               d="m 0,0 1.897,-1.609 c 1.209,0.531 2.313,1.215 3.283,2.035 2.543,2.143 3.945,5.001 3.945,8.043 0,3.029 -1.392,5.878 -3.915,8.02 -2.525,2.141 -5.884,3.321 -9.455,3.321 -0.112,0 -0.223,0 -0.337,-0.004 -0.055,0 -0.109,-0.002 -0.165,-0.004 h -0.008 c -0.081,-0.002 -0.163,-0.006 -0.246,-0.01 -0.066,-0.002 -0.129,-0.006 -0.195,-0.01 -0.034,0 -0.062,-0.004 -0.09,-0.006 L -5.331,19.774 C -5.391,19.77 -5.453,19.766 -5.512,19.76 -5.566,19.756 -5.616,19.752 -5.667,19.748 -5.705,19.744 -5.737,19.74 -5.769,19.738 L -5.82,19.734 C -5.828,19.732 -5.832,19.732 -5.838,19.73 -5.882,19.728 -5.924,19.722 -5.97,19.718 -6.133,19.7 -6.296,19.68 -6.455,19.657 -6.499,19.651 -6.544,19.645 -6.588,19.639 L -6.602,19.637 C -6.638,19.631 -6.67,19.625 -6.703,19.621 l -0.022,-0.004 c -0.044,-0.006 -0.088,-0.014 -0.131,-0.022 -0.124,-0.02 -0.241,-0.042 -0.358,-0.064 -0.08,-0.014 -0.159,-0.03 -0.237,-0.047 l -0.01,-0.002 c -0.02,-0.002 -0.038,-0.008 -0.06,-0.012 -0.057,-0.012 -0.109,-0.024 -0.163,-0.036 -0.043,-0.01 -0.087,-0.018 -0.129,-0.03 -0.038,-0.008 -0.07,-0.016 -0.103,-0.024 -0.032,-0.008 -0.056,-0.014 -0.078,-0.02 l -0.02,-0.004 c -0.032,-0.008 -0.065,-0.016 -0.097,-0.026 -0.056,-0.011 -0.104,-0.025 -0.151,-0.037 -0.04,-0.012 -0.074,-0.02 -0.11,-0.03 -0.113,-0.032 -0.224,-0.064 -0.334,-0.096 -0.03,-0.01 -0.057,-0.017 -0.085,-0.025 L -8.817,19.134 C -8.855,19.122 -8.889,19.112 -8.923,19.1 -8.98,19.084 -9.03,19.066 -9.078,19.05 -9.119,19.036 -9.155,19.024 -9.193,19.012 -9.261,18.99 -9.322,18.969 -9.384,18.947 L -9.569,18.879 C -9.628,18.857 -9.684,18.837 -9.74,18.815 -9.772,18.803 -9.801,18.792 -9.829,18.782 L -9.855,18.77 c -0.046,-0.016 -0.092,-0.036 -0.137,-0.054 -0.281,-0.113 -0.559,-0.237 -0.828,-0.366 -0.029,-0.014 -0.055,-0.026 -0.083,-0.04 -0.06,-0.029 -0.117,-0.057 -0.175,-0.087 l -0.193,-0.1 c -0.04,-0.021 -0.081,-0.043 -0.123,-0.065 -0.135,-0.074 -0.275,-0.151 -0.424,-0.239 -0.04,-0.022 -0.077,-0.046 -0.115,-0.067 l -0.024,-0.014 c -0.036,-0.022 -0.068,-0.04 -0.097,-0.06 l -0.012,-0.008 c -0.022,-0.014 -0.044,-0.026 -0.064,-0.04 l -0.008,-0.006 c -0.04,-0.022 -0.078,-0.047 -0.115,-0.071 -0.044,-0.026 -0.084,-0.054 -0.124,-0.08 -0.029,-0.018 -0.053,-0.034 -0.077,-0.05 l -0.028,-0.019 c -0.044,-0.028 -0.085,-0.056 -0.127,-0.086 -0.048,-0.032 -0.094,-0.064 -0.139,-0.095 -0.082,-0.056 -0.16,-0.114 -0.239,-0.173 -0.026,-0.018 -0.05,-0.036 -0.074,-0.054 l 1.788,-1.517 c 1.957,1.416 4.438,2.191 7.028,2.191 5.981,0 10.847,-4.128 10.847,-9.201 0,-2.474 -1.14,-4.792 -3.21,-6.534 C 2.42,1.118 1.257,0.455 0,0"
               style="fill:#8a8d8d;fill-opacity:1;fill-rule:nonzero;stroke:none"
               id="path4409" />
          </g>
          <g
             id="g4411"
             transform="translate(77.6354,102.2077)">
            <path
               d="M 0,0 C 1.917,0 3.47,1.553 3.47,3.47 3.47,5.387 1.917,6.94 0,6.94 -1.917,6.94 -3.47,5.387 -3.47,3.47 -3.47,1.553 -1.917,0 0,0"
               style="fill:#8a8d8d;fill-opacity:1;fill-rule:nonzero;stroke:none"
               id="path4413" />
          </g>
        </g>
      </g>
    </g>
  </g>
</svg>
