<?xml version="1.0" encoding="UTF-8" standalone="no"?>
<!-- Created with Inkscape (http://www.inkscape.org/) -->

<svg
   version="1.1"
   id="svg4353"
   width="132.36397"
   height="105.3903"
   viewBox="0 0 132.36397 105.39031"
   sodipodi:docname="logo-dzial-studencki.svg"
   inkscape:export-filename="../../projects/strona-organizacji-studenckich/public/logo-dzial-studencki.svg"
   inkscape:export-xdpi="96"
   inkscape:export-ydpi="96"
   inkscape:version="1.2.2 (b0a8486541, 2022-12-01)"
   xmlns:inkscape="http://www.inkscape.org/namespaces/inkscape"
   xmlns:sodipodi="http://sodipodi.sourceforge.net/DTD/sodipodi-0.dtd"
   xmlns="http://www.w3.org/2000/svg"
   xmlns:svg="http://www.w3.org/2000/svg">
  <defs
     id="defs4357">
    <clipPath
       clipPathUnits="userSpaceOnUse"
       id="clipPath4393">
      <path
         d="m 5.316,34.997 h 144.283 v 86.782 H 5.316 Z"
         id="path4391" />
    </clipPath>
  </defs>
  <sodipodi:namedview
     id="namedview4355"
     pagecolor="#ffffff"
     bordercolor="#999999"
     borderopacity="1"
     inkscape:showpageshadow="0"
     inkscape:pageopacity="0"
     inkscape:pagecheckerboard="0"
     inkscape:deskcolor="#d1d1d1"
     showgrid="false"
     inkscape:zoom="8.2645179"
     inkscape:cx="52.51365"
     inkscape:cy="52.816148"
     inkscape:window-width="956"
     inkscape:window-height="1036"
     inkscape:window-x="960"
     inkscape:window-y="0"
     inkscape:window-maximized="1"
     inkscape:current-layer="g4361" />
  <g
     id="g4361"
     inkscape:groupmode="layer"
     inkscape:label="Page 1"
     transform="matrix(1.3333333,0,0,-1.3333333,-36.753207,162.37186)">
    <g
       id="g4556">
      <text
         xml:space="preserve"
         transform="matrix(1,0,0,-1,26.998,70.8828)"
         style="font-variant:normal;font-weight:normal;font-stretch:normal;font-size:11.6888px;font-family:Lato;-inkscape-font-specification:Lato-Regular;writing-mode:lr-tb;fill:#868484;fill-opacity:1;fill-rule:nonzero;stroke:none"
         id="text4365"><tspan
           x="0 8.6964674 15.733125 19.005989"
           y="0"
           sodipodi:role="line"
           id="tspan4363">DZIA</tspan></text>
      <text
         xml:space="preserve"
         transform="matrix(1,0,0,-1,53.893929,70.8828)"
         style="font-variant:normal;font-weight:normal;font-stretch:normal;font-size:11.6888px;font-family:Lato;-inkscape-font-specification:Lato-Regular;writing-mode:lr-tb;fill:#868484;fill-opacity:1;fill-rule:nonzero;stroke:none"
         id="text4369"><tspan
           x="0"
           y="0"
           id="tspan4367">Ł</tspan></text>
      <text
         xml:space="preserve"
         transform="matrix(1,0,0,-1,62.718973,70.8828)"
         style="font-variant:normal;font-weight:normal;font-stretch:normal;font-size:11.6888px;font-family:Lato;-inkscape-font-specification:Lato-Regular;writing-mode:lr-tb;fill:#868484;fill-opacity:1;fill-rule:nonzero;stroke:none"
         id="text4377"><tspan
           x="0 6.3353295 13.231722 21.82299 30.706478 37.450916 46.369469 54.177589 61.915573"
           y="0"
           sodipodi:role="line"
           id="tspan4371">STUDENCKI</tspan><tspan
           x="-24.791945 -17.778666 -8.4276247 -2.4312704 0.84159362 7.761363 14.342157 22.150276 31.06883 39.987385 43.26025 51.005249 54.278111"
           y="14.02656"
           sodipodi:role="line"
           id="tspan4373">POLITECHNIKI </tspan><tspan
           x="-35.335243 -22.430807 -14.377224"
           y="28.05312"
           sodipodi:role="line"
           id="tspan4375">WRO</tspan></text>
      <text
         xml:space="preserve"
         transform="matrix(1,0,0,-1,58.511005,42.82968)"
         style="font-variant:normal;font-weight:normal;font-stretch:normal;font-size:11.6888px;font-family:Lato;-inkscape-font-specification:Lato-Regular;writing-mode:lr-tb;fill:#868484;fill-opacity:1;fill-rule:nonzero;stroke:none"
         id="text4381"><tspan
           x="0 8.6263342"
           y="0"
           sodipodi:role="line"
           id="tspan4379">CŁ</tspan></text>
      <text
         xml:space="preserve"
         transform="matrix(1,0,0,-1,74.127242,42.82968)"
         style="font-variant:normal;font-weight:normal;font-stretch:normal;font-size:11.6888px;font-family:Lato;-inkscape-font-specification:Lato-Regular;writing-mode:lr-tb;fill:#868484;fill-opacity:1;fill-rule:nonzero;stroke:none"
         id="text4385"><tspan
           x="0 8.217226 21.063217 28.205074 36.749588 40.852356 48.40332"
           y="0"
           sodipodi:role="line"
           id="tspan4383">AWSKIEJ</tspan></text>
      <g
         id="g4387">
        <g
           id="g4389"
           clip-path="url(#clipPath4393)">
          <g
             id="g4395"
             transform="translate(91.9711,97.5615)">
            <path
               d="m 0,0 c -0.517,-0.774 -1.129,-1.501 -1.823,-2.169 l 0.017,-0.016 -0.644,-0.549 c -2.875,-2.454 -6.705,-3.806 -10.784,-3.806 -4.06,0 -7.88,1.342 -10.752,3.778 -2.871,2.436 -4.454,5.675 -4.454,9.119 0,0.255 0.01,0.513 0.028,0.77 0.002,0.034 0.004,0.069 0.006,0.107 l 0.002,0.01 c 0.002,0.024 0.004,0.046 0.006,0.07 v 0.012 c 0.004,0.053 0.01,0.107 0.016,0.161 0.004,0.042 0.008,0.089 0.014,0.135 0.008,0.07 0.018,0.139 0.026,0.209 0.005,0.04 0.011,0.085 0.017,0.129 0.008,0.056 0.018,0.121 0.028,0.185 0.006,0.036 0.012,0.07 0.018,0.103 0.01,0.06 0.022,0.124 0.034,0.187 0.008,0.036 0.014,0.074 0.022,0.11 0.006,0.032 0.012,0.063 0.02,0.095 0.008,0.042 0.018,0.09 0.028,0.135 0.01,0.04 0.019,0.086 0.029,0.13 0.012,0.049 0.024,0.101 0.038,0.151 0.088,0.352 0.195,0.706 0.316,1.05 l 0.004,0.008 c 0.016,0.045 0.032,0.091 0.05,0.137 0.014,0.038 0.028,0.077 0.044,0.117 0.085,0.225 0.183,0.452 0.284,0.672 0.014,0.03 0.028,0.064 0.044,0.096 0.016,0.034 0.032,0.069 0.05,0.103 0.019,0.044 0.041,0.09 0.065,0.137 0.018,0.036 0.038,0.076 0.058,0.116 l 0.01,0.018 0.083,0.161 c 0.022,0.039 0.042,0.077 0.064,0.117 0.384,0.702 0.849,1.38 1.382,2.016 l 0.086,0.102 c 0.061,0.071 0.121,0.139 0.18,0.209 0.03,0.031 0.06,0.065 0.092,0.099 0.066,0.074 0.133,0.145 0.201,0.217 0.04,0.042 0.079,0.083 0.121,0.125 0.036,0.038 0.078,0.08 0.119,0.121 0.04,0.042 0.084,0.082 0.126,0.124 0.045,0.045 0.093,0.091 0.141,0.137 l -1.784,1.515 c -2.963,-2.766 -4.591,-6.339 -4.591,-10.096 0,-4.017 1.845,-7.793 5.194,-10.632 3.348,-2.842 7.799,-4.405 12.535,-4.405 4.751,0 9.213,1.573 12.564,4.429 0.956,0.815 1.799,1.718 2.511,2.69 z"
               style="fill:#8a8d8d;fill-opacity:1;fill-rule:nonzero;stroke:none"
               id="path4397" />
          </g>
          <g
             id="g4399"
             transform="translate(69.2828,95.8995)">
            <path
               d="m 0,0 c 2.525,-2.142 5.882,-3.323 9.455,-3.323 0.112,0 0.223,0.002 0.335,0.006 0.057,0 0.111,0.002 0.165,0.002 h 0.008 c 0.083,0.004 0.165,0.008 0.246,0.012 0.066,0.002 0.131,0.006 0.197,0.01 0.034,0.002 0.062,0.004 0.089,0.004 l 0.044,0.004 c 0.06,0.004 0.121,0.008 0.183,0.014 0.054,0.004 0.104,0.008 0.155,0.012 0.038,0.004 0.07,0.006 0.1,0.01 l 0.069,0.006 c 0.044,0.004 0.088,0.01 0.132,0.014 0.165,0.018 0.328,0.037 0.487,0.059 0.043,0.008 0.087,0.014 0.131,0.02 l 0.016,0.002 c 0.036,0.006 0.069,0.01 0.103,0.016 l 0.018,0.004 c 0.046,0.006 0.092,0.014 0.135,0.022 0.122,0.02 0.239,0.04 0.356,0.064 0.08,0.013 0.157,0.029 0.235,0.047 l 0.01,0.002 c 0.02,0.004 0.04,0.008 0.06,0.012 0.059,0.012 0.111,0.024 0.163,0.036 0.045,0.01 0.089,0.02 0.131,0.03 0.038,0.008 0.069,0.016 0.101,0.024 0.032,0.008 0.056,0.012 0.08,0.02 l 0.018,0.004 c 0.034,0.007 0.065,0.015 0.099,0.023 0.056,0.014 0.104,0.028 0.151,0.04 0.038,0.01 0.074,0.02 0.11,0.03 0.111,0.03 0.222,0.062 0.334,0.095 0.03,0.01 0.059,0.018 0.087,0.028 l 0.022,0.006 c 0.04,0.012 0.076,0.022 0.109,0.034 0.054,0.018 0.104,0.034 0.154,0.05 0.041,0.014 0.077,0.026 0.113,0.038 0.07,0.023 0.129,0.043 0.193,0.065 l 0.185,0.068 c 0.059,0.022 0.115,0.042 0.171,0.063 0.032,0.012 0.059,0.024 0.087,0.034 l 0.028,0.01 c 0.044,0.018 0.092,0.038 0.137,0.056 0.281,0.113 0.559,0.236 0.826,0.364 0.029,0.016 0.057,0.03 0.085,0.042 0.062,0.029 0.123,0.061 0.185,0.091 l 0.304,0.161 c 0.135,0.072 0.277,0.151 0.426,0.239 0.042,0.024 0.083,0.049 0.125,0.073 l 0.018,0.01 c 0.03,0.02 0.062,0.038 0.091,0.058 l 0.01,0.006 c 0.022,0.014 0.046,0.028 0.068,0.042 l 0.008,0.004 c 0.038,0.023 0.077,0.047 0.115,0.071 0.042,0.028 0.084,0.054 0.124,0.082 0.029,0.018 0.051,0.033 0.077,0.049 l 0.028,0.02 c 0.042,0.028 0.083,0.056 0.127,0.086 0.044,0.03 0.086,0.057 0.127,0.087 l 0.012,0.008 c 0.08,0.056 0.159,0.114 0.239,0.173 0.024,0.018 0.05,0.036 0.074,0.054 L 16.483,1.01 c -1.959,-1.416 -4.44,-2.191 -7.028,-2.191 -5.981,0 -10.847,4.128 -10.847,9.201 0,2.471 1.139,4.794 3.21,6.534 0.972,0.817 2.135,1.479 3.392,1.935 L 3.313,18.098 C 2.104,17.565 1,16.883 0.03,16.063 -2.515,13.918 -3.915,11.062 -3.915,8.02 -3.915,4.989 -2.525,2.142 0,0"
               style="fill:#8a8d8d;fill-opacity:1;fill-rule:nonzero;stroke:none"
               id="path4401" />
          </g>
          <g
             id="g4403"
             transform="translate(93.9074,106.7419)">
            <path
               d="m 0,0 c 0,4.017 -1.843,7.793 -5.192,10.633 -3.349,2.841 -7.801,4.404 -12.536,4.404 -4.752,0 -9.215,-1.573 -12.565,-4.428 -0.955,-0.814 -1.798,-1.718 -2.51,-2.691 l 1.842,-1.561 c 0.517,0.774 1.129,1.502 1.823,2.17 l -0.02,0.016 0.647,0.549 c 2.875,2.455 6.705,3.806 10.783,3.806 4.061,0 7.879,-1.343 10.752,-3.779 2.872,-2.436 4.455,-5.673 4.455,-9.119 0,-0.255 -0.01,-0.513 -0.028,-0.77 -0.002,-0.033 -0.006,-0.069 -0.008,-0.107 -0.002,-0.026 -0.004,-0.052 -0.006,-0.077 v -0.014 c -0.006,-0.054 -0.012,-0.108 -0.016,-0.16 -0.006,-0.043 -0.01,-0.091 -0.016,-0.139 -0.008,-0.065 -0.016,-0.137 -0.026,-0.206 -0.004,-0.04 -0.01,-0.084 -0.018,-0.13 -0.006,-0.057 -0.018,-0.121 -0.028,-0.185 -0.006,-0.035 -0.012,-0.069 -0.018,-0.103 -0.007,-0.06 -0.019,-0.123 -0.033,-0.187 -0.006,-0.036 -0.014,-0.072 -0.02,-0.109 -0.008,-0.032 -0.014,-0.064 -0.022,-0.096 -0.006,-0.042 -0.018,-0.089 -0.028,-0.135 -0.008,-0.04 -0.018,-0.086 -0.03,-0.129 -0.01,-0.05 -0.022,-0.102 -0.036,-0.151 -0.089,-0.352 -0.194,-0.706 -0.318,-1.05 -0.016,-0.048 -0.034,-0.096 -0.051,-0.146 -0.014,-0.037 -0.03,-0.075 -0.044,-0.117 -0.088,-0.227 -0.183,-0.453 -0.285,-0.672 -0.013,-0.03 -0.027,-0.062 -0.043,-0.093 -0.016,-0.036 -0.032,-0.072 -0.05,-0.108 -0.02,-0.042 -0.044,-0.089 -0.068,-0.135 -0.015,-0.036 -0.037,-0.076 -0.057,-0.115 l -0.008,-0.018 c -0.028,-0.054 -0.056,-0.108 -0.086,-0.159 -0.02,-0.04 -0.041,-0.08 -0.063,-0.12 -0.384,-0.702 -0.847,-1.38 -1.38,-2.016 l -0.086,-0.101 c -0.062,-0.072 -0.121,-0.14 -0.183,-0.207 -0.028,-0.034 -0.059,-0.068 -0.089,-0.102 -0.068,-0.073 -0.134,-0.145 -0.201,-0.216 -0.04,-0.042 -0.08,-0.084 -0.121,-0.126 -0.036,-0.035 -0.074,-0.075 -0.112,-0.113 L -6.107,-8.32 C -6.149,-8.36 -6.19,-8.404 -6.232,-8.443 -6.28,-8.489 -6.326,-8.535 -6.375,-8.58 l 1.785,-1.516 C -1.627,-7.33 0,-3.756 0,0"
               style="fill:#8a8d8d;fill-opacity:1;fill-rule:nonzero;stroke:none"
               id="path4405" />
          </g>
          <g
             id="g4407"
             transform="translate(80.4241,98.2728)">
            <path
               d="m 0,0 1.897,-1.609 c 1.209,0.531 2.313,1.215 3.283,2.035 2.543,2.143 3.945,5.001 3.945,8.043 0,3.029 -1.392,5.878 -3.915,8.02 -2.525,2.141 -5.884,3.321 -9.455,3.321 -0.112,0 -0.223,0 -0.337,-0.004 -0.055,0 -0.109,-0.002 -0.165,-0.004 h -0.008 c -0.081,-0.002 -0.163,-0.006 -0.246,-0.01 -0.066,-0.002 -0.129,-0.006 -0.195,-0.01 -0.034,0 -0.062,-0.004 -0.09,-0.006 L -5.331,19.774 C -5.391,19.77 -5.453,19.766 -5.512,19.76 -5.566,19.756 -5.616,19.752 -5.667,19.748 -5.705,19.744 -5.737,19.74 -5.769,19.738 L -5.82,19.734 C -5.828,19.732 -5.832,19.732 -5.838,19.73 -5.882,19.728 -5.924,19.722 -5.97,19.718 -6.133,19.7 -6.296,19.68 -6.455,19.657 -6.499,19.651 -6.544,19.645 -6.588,19.639 L -6.602,19.637 C -6.638,19.631 -6.67,19.625 -6.703,19.621 l -0.022,-0.004 c -0.044,-0.006 -0.088,-0.014 -0.131,-0.022 -0.124,-0.02 -0.241,-0.042 -0.358,-0.064 -0.08,-0.014 -0.159,-0.03 -0.237,-0.047 l -0.01,-0.002 c -0.02,-0.002 -0.038,-0.008 -0.06,-0.012 -0.057,-0.012 -0.109,-0.024 -0.163,-0.036 -0.043,-0.01 -0.087,-0.018 -0.129,-0.03 -0.038,-0.008 -0.07,-0.016 -0.103,-0.024 -0.032,-0.008 -0.056,-0.014 -0.078,-0.02 l -0.02,-0.004 c -0.032,-0.008 -0.065,-0.016 -0.097,-0.026 -0.056,-0.011 -0.104,-0.025 -0.151,-0.037 -0.04,-0.012 -0.074,-0.02 -0.11,-0.03 -0.113,-0.032 -0.224,-0.064 -0.334,-0.096 -0.03,-0.01 -0.057,-0.017 -0.085,-0.025 L -8.817,19.134 C -8.855,19.122 -8.889,19.112 -8.923,19.1 -8.98,19.084 -9.03,19.066 -9.078,19.05 -9.119,19.036 -9.155,19.024 -9.193,19.012 -9.261,18.99 -9.322,18.969 -9.384,18.947 L -9.569,18.879 C -9.628,18.857 -9.684,18.837 -9.74,18.815 -9.772,18.803 -9.801,18.792 -9.829,18.782 L -9.855,18.77 c -0.046,-0.016 -0.092,-0.036 -0.137,-0.054 -0.281,-0.113 -0.559,-0.237 -0.828,-0.366 -0.029,-0.014 -0.055,-0.026 -0.083,-0.04 -0.06,-0.029 -0.117,-0.057 -0.175,-0.087 l -0.193,-0.1 c -0.04,-0.021 -0.081,-0.043 -0.123,-0.065 -0.135,-0.074 -0.275,-0.151 -0.424,-0.239 -0.04,-0.022 -0.077,-0.046 -0.115,-0.067 l -0.024,-0.014 c -0.036,-0.022 -0.068,-0.04 -0.097,-0.06 l -0.012,-0.008 c -0.022,-0.014 -0.044,-0.026 -0.064,-0.04 l -0.008,-0.006 c -0.04,-0.022 -0.078,-0.047 -0.115,-0.071 -0.044,-0.026 -0.084,-0.054 -0.124,-0.08 -0.029,-0.018 -0.053,-0.034 -0.077,-0.05 l -0.028,-0.019 c -0.044,-0.028 -0.085,-0.056 -0.127,-0.086 -0.048,-0.032 -0.094,-0.064 -0.139,-0.095 -0.082,-0.056 -0.16,-0.114 -0.239,-0.173 -0.026,-0.018 -0.05,-0.036 -0.074,-0.054 l 1.788,-1.517 c 1.957,1.416 4.438,2.191 7.028,2.191 5.981,0 10.847,-4.128 10.847,-9.201 0,-2.474 -1.14,-4.792 -3.21,-6.534 C 2.42,1.118 1.257,0.455 0,0"
               style="fill:#8a8d8d;fill-opacity:1;fill-rule:nonzero;stroke:none"
               id="path4409" />
          </g>
          <g
             id="g4411"
             transform="translate(77.6354,102.2077)">
            <path
               d="M 0,0 C 1.917,0 3.47,1.553 3.47,3.47 3.47,5.387 1.917,6.94 0,6.94 -1.917,6.94 -3.47,5.387 -3.47,3.47 -3.47,1.553 -1.917,0 0,0"
               style="fill:#8a8d8d;fill-opacity:1;fill-rule:nonzero;stroke:none"
               id="path4413" />
          </g>
        </g>
      </g>
    </g>
  </g>
</svg>
