<?xml version="1.0" encoding="UTF-8" standalone="no"?>
<svg
   width="201.93999"
   height="79.238998"
   version="1.1"
   id="svg189"
   xmlns="http://www.w3.org/2000/svg"
   xmlns:svg="http://www.w3.org/2000/svg">
  <defs
     id="defs193" />
  <g
     id="g187">
    <g
       stroke="null"
       id="svg_1">
      <g
         stroke="null"
         id="svg_2">
        <path
           stroke="null"
           id="svg_3"
           d="m 29.535435,19.329125 c -5.644142,0 -10.205806,4.561664 -10.205806,10.206563 0,5.644142 4.561411,10.205553 10.205806,10.205553 5.644395,0 10.206058,-4.561159 10.206058,-10.205553 -2.52e-4,-5.644899 -4.561916,-10.206563 -10.206058,-10.206563 m 0,23.194298 c -7.19061,0 -12.989502,-5.798135 -12.989502,-12.987988 0,-7.190358 5.798892,-12.98925 12.989502,-12.98925 7.113113,0 12.988745,5.798892 12.988745,12.98925 0,7.190105 -5.875884,12.987988 -12.988745,12.987988 z"
           fill="#d2e6ef" />
        <path
           stroke="null"
           id="svg_4"
           d="m 39.27699,56.596161 c 0,1.003971 -0.849978,1.854959 -1.855464,1.854959 -1.082478,0 -1.933214,-0.850988 -1.933214,-1.854959 0,-1.083236 0.850736,-1.932709 1.933214,-1.932709 1.005234,-2.52e-4 1.855464,0.849221 1.855464,1.932709 M 29.535436,15.076457 c -7.963596,0 -14.380976,6.494625 -14.380976,14.458979 0,7.963344 6.41738,14.457716 14.380976,14.457716 7.963091,0 14.380715,-6.494373 14.380715,-14.457716 C 43.915899,21.57083 37.498527,15.076457 29.535436,15.076457 Z M 46.467601,6.26263 c 0,1.081973 -0.850231,1.932709 -1.855708,1.932709 -1.004729,0 -1.855717,-0.850736 -1.855717,-1.932709 0,-1.004981 0.850736,-1.855212 1.855717,-1.855212 1.005477,0 1.855708,0.849978 1.855708,1.855212 z m 10.360556,11.907024 c 0,1.005486 -0.850988,1.855464 -1.933214,1.855464 -1.004729,0 -1.855717,-0.849726 -1.855717,-1.855464 0,-1.005738 0.850736,-1.855717 1.855717,-1.855717 1.082226,0 1.933214,0.849726 1.933214,1.855717 z m 2.24221,15.540699 c 0,1.081973 -0.850492,1.932709 -1.932717,1.932709 -1.005477,0 -1.855708,-0.850736 -1.855708,-1.932709 0,-1.004981 0.849978,-1.855717 1.855708,-1.855717 1.082234,2.52e-4 1.932717,0.850736 1.932717,1.855717 z m -6.572131,14.380472 c 0,1.005225 -0.850483,1.85596 -1.855464,1.85596 -1.082731,0 -1.855708,-0.850483 -1.855708,-1.85596 0,-1.082739 0.772977,-1.933475 1.855708,-1.933475 1.004729,0 1.855464,0.850736 1.855464,1.933475 z m -28.993939,8.505336 c 0,1.003971 -0.773238,1.854959 -1.855464,1.854959 -1.004729,0 -1.855717,-0.850988 -1.855717,-1.854959 0,-1.083236 0.850736,-1.932709 1.855717,-1.932709 1.082478,-2.52e-4 1.855464,0.849221 1.855464,1.932709 z m -13.22074,-8.505336 c 0,1.005225 -0.850736,1.85596 -1.855717,1.85596 -1.004981,0 -1.855969,-0.850483 -1.855969,-1.85596 0,-1.082739 0.850736,-1.933475 1.855969,-1.933475 1.004981,0 1.855717,0.850736 1.855717,1.933475 z M 3.78868,33.710353 c 0,1.081973 -0.850231,1.932709 -1.932961,1.932709 -1.004981,0 -1.855717,-0.850736 -1.855717,-1.932709 0,-1.004981 0.850483,-1.855717 1.855717,-1.855717 1.082731,2.52e-4 1.932961,0.850736 1.932961,1.855717 z M 6.03089,18.169654 c 0,1.005486 -0.850483,1.855464 -1.932961,1.855464 -1.004981,0 -1.855464,-0.849726 -1.855464,-1.855464 0,-1.005738 0.850231,-1.855717 1.855464,-1.855717 1.082478,0 1.932961,0.849726 1.932961,1.855717 z M 16.31394,6.26263 c 0,1.081973 -0.850483,1.932709 -1.855717,1.932709 -1.082226,0 -1.932456,-0.850736 -1.932456,-1.932709 0,-1.004981 0.850231,-1.855212 1.932456,-1.855212 1.004981,0 1.855717,0.849978 1.855717,1.855212 z M 31.390902,1.855717 c 0,1.005234 -0.850736,1.856222 -1.855717,1.856222 -1.005234,0 -1.855969,-0.850736 -1.855969,-1.856222 C 27.679216,0.850988 28.529699,0 29.535185,0 c 1.004981,0 1.855717,0.850736 1.855717,1.855717 z M 8.582339,16.005203 c -1.236976,1.85495 -2.164704,3.86567 -2.860698,6.030374 l 4.639161,3.634189 -0.07724,0.23149 c -0.0775,0.385988 -0.0775,0.772977 -0.155003,1.236976 v 0.154489 l -5.566636,2.319454 c 0,2.164965 0.30924,4.329921 0.92798,6.416875 l 5.798892,0.618741 0.07699,0.231995 c 0.232248,0.386745 0.386745,0.850231 0.618993,1.237481 l 0.07725,0.231995 -3.402194,4.792396 c 1.159731,1.856474 2.628955,3.480439 4.175171,4.948914 l 5.257396,-2.628955 0.231995,0.078 c 0.386493,0.309248 0.772986,0.541496 1.159731,0.772733 l 0.232248,0.155255 -0.232248,5.875632 c 2.010215,0.849978 4.097917,1.469224 6.185377,1.855464 L 28.6847,49.096048 h 0.23149 c 0.464748,0 0.928233,0 1.391979,0 h 0.232248 l 3.015187,5.025654 c 2.164956,-0.30924 4.25292,-0.928485 6.18589,-1.85596 l -0.232256,-5.953643 0.232256,-0.07674 c 0.385979,-0.233005 0.695985,-0.464243 1.082226,-0.695985 l 0.154742,-0.15475 5.257405,2.628946 c 1.623208,-1.469224 3.092431,-3.170442 4.25191,-5.026159 l -3.401932,-4.870146 0.0775,-0.155247 c 0.154498,-0.385988 0.309753,-0.695489 0.463485,-1.082234 l 0.07776,-0.231995 5.875884,-0.541487 c 0.618741,-2.164207 0.850736,-4.329164 0.850736,-6.571121 0,0 0,0 0,-0.078 l -5.489653,-2.241957 v -0.2325 c -0.07674,-0.30924 -0.07674,-0.618236 -0.154237,-0.927223 l -0.07751,-0.232248 4.639161,-3.711181 c -0.695733,-2.164704 -1.624218,-4.174413 -2.861194,-6.030635 l -5.79864,1.081721 -0.15475,-0.231238 c -0.23149,-0.15475 -0.385979,-0.38624 -0.618236,-0.618488 l -0.154742,-0.15475 1.932961,-5.643881 C 43.993403,9.045828 42.060442,7.808599 39.972982,6.881115 l -4.329416,4.097169 -0.155003,-0.07751 c -0.308735,-0.07725 -0.541235,-0.153984 -0.850231,-0.232248 l -0.231995,-0.07649 -1.391474,-5.722144 c -1.159975,-0.23149 -2.319454,-0.308996 -3.479177,-0.308996 -1.082731,0 -2.164704,0.077506 -3.247443,0.232248 l -1.468971,5.721143 -0.232248,0.07775 c -0.30924,0.07649 -0.541235,0.154498 -0.849978,0.23149 l -0.232248,0.07724 -4.330174,-4.097412 c -2.010206,0.928233 -3.943167,2.165209 -5.643628,3.63418 l 1.855708,5.567402 -0.154994,0.153993 c -0.231995,0.231995 -0.463746,0.541487 -0.695489,0.77323 l -0.07775,0.15475 -5.876137,-1.081721 z"
           fill="#80cbea"
           clip-rule="evenodd"
           fill-rule="evenodd" />
      </g>
      <polygon
         stroke="null"
         id="svg_5"
         points="81.243527,18.207518 84.2827,18.207518 89.786229,6.4249511 91.805523,10.617791 89.776384,10.617791 88.449031,13.370441 93.130597,13.370441 95.459906,18.207518 98.514982,18.207518 89.748609,0 "
         fill="#929292" />
      <g
         stroke="null"
         id="svg_6">
        <polygon
           stroke="null"
           id="svg_7"
           points="154.43307,0.066897423 155.99191,2.8197982 164.48135,2.8197982 154.4005,18.238569 167.01032,18.238569 168.33768,15.485668 159.48877,15.485668 169.57062,0.066897423 "
           fill="#929292" />
        <polygon
           stroke="null"
           id="svg_8"
           points="168.94606,17.393894 168.53838,18.238569 168.94606,18.238569 "
           fill="#929292" />
      </g>
      <polygon
         stroke="null"
         id="svg_9"
         points="185.20346,22.200927 183.23868,19.283187 180.74934,19.283187 182.71512,22.200927 "
         fill="#929292" />
      <path
         stroke="null"
         id="svg_10"
         d="m 136.8857,7.421351 c -0.0439,-4.691418 -3.84573,-7.279226 -7.53091,-7.414282 l -7.53873,-0.006817 1.5596,2.752397 h 5.66812 c 0.002,7.57e-4 0.005,7.57e-4 0.006,7.57e-4 2.52596,0 5.08347,1.630791 5.08347,4.748724 v 3.214619 c 0,3.11768 -2.55751,4.748724 -5.08347,4.748724 -1.26272,0 -2.41109,-0.407197 -3.23406,-1.146097 -0.93732,-0.840383 -1.41267,-2.052877 -1.41267,-3.602627 V 7.50213 c 0,-1.056985 0.22669,-1.95215 0.66468,-2.684242 h -3.00811 C 121.8095,5.576735 121.6502,6.464334 121.6502,7.50213 v 3.214619 c 0,2.945517 1.26526,4.699497 2.32627,5.651464 1.32887,1.193556 3.13031,1.850414 5.07311,1.850414 3.79903,0 7.83612,-2.62946 7.83612,-7.501878 z"
         fill="#929292" />
      <g
         stroke="null"
         id="svg_11">
        <polygon
           stroke="null"
           id="svg_12"
           points="200.38896,43.732629 197.63633,43.732629 197.63633,25.530164 200.38896,25.530164 "
           fill="#929292" />
      </g>
      <polygon
         stroke="null"
         id="svg_13"
         points="162.26816,43.722278 162.26816,25.530164 159.51526,25.530164 159.51526,40.06639 150.81933,25.530164 147.61101,25.530164 147.65141,25.598067 147.65141,43.722278 150.40432,43.722278 150.40432,30.198857 158.49566,43.722278 "
         fill="#929292" />
      <path
         stroke="null"
         id="svg_14"
         d="m 122.3631,43.732625 c 2.29724,-0.118897 4.21607,-1.106961 5.57094,-2.839993 1.22662,-1.568435 1.90216,-3.686942 1.90216,-5.968026 0,-4.528335 -2.78875,-9.340678 -7.95779,-9.340678 H 117.471 v -0.0035 h -2.75316 V 43.72203 H 117.471 V 28.337082 h 4.40741 c 3.41683,0 5.20464,3.314083 5.20464,6.587524 0,1.668404 -0.46753,3.185844 -1.317,4.271352 -0.92193,1.17866 -2.23009,1.776452 -3.88764,1.776452 l -2.56104,0.0063 1.56591,2.753659 h 1.47982 z"
         fill="#929292" />
      <path
         stroke="null"
         id="svg_15"
         d="m 71.213164,25.58418 c -3.053052,0.353425 -4.693438,2.950567 -4.693438,5.36494 0,1.346287 0.487472,2.596131 1.37279,3.51806 0.690944,0.720224 1.95417,1.57702 4.049204,1.57702 h 3.150748 c 1.833759,0 2.669092,1.354358 2.669092,2.611786 0,0.632619 -0.215331,1.20491 -0.605611,1.611855 -0.45894,0.478373 -1.172852,0.731073 -2.063481,0.731073 H 63.807475 l -1.326845,2.752144 h 12.611838 c 2.095034,0 3.358016,-0.8573 4.049204,-1.576515 0.885571,-0.922173 1.37279,-2.171773 1.37279,-3.518557 0,-2.599675 -1.900146,-5.36393 -5.422246,-5.36393 h -3.150748 c -0.89062,0 -1.604027,-0.252952 -2.062976,-0.731081 -0.391029,-0.406936 -0.605864,-0.979227 -0.605864,-1.611602 0,-1.256662 0.835342,-2.611786 2.66884,-2.611786 h 6.605956 l 1.327098,-2.753154 h -8.661357 v -2.52e-4 z"
         fill="#929292" />
      <g
         stroke="null"
         id="svg_16">
        <polyline
           stroke="null"
           id="svg_17"
           points="96.85364610567103,25.58418493448835 82.16696383563794,25.58418493448835 80.83987082140266,28.33733751639261 86.71423550898817,28.33733751639261 86.71423550898817,43.72227803589158 89.46738985014144,43.72227803589158 89.46738985014144,28.33733751639261 95.67119150859162,28.33733751639261 96.99577231523108,25.591248319290344 "
           fill="#929292" />
        <path
           stroke="null"
           id="svg_18"
           d="m 109.33624,25.651586 v 10.579422 c 0,3.117428 -2.55751,4.749229 -5.08347,4.749229 -1.26221,0 -2.41109,-0.407702 -3.23405,-1.146349 -0.93708,-0.840897 -1.41243,-2.052624 -1.41243,-3.60288 V 25.489261 h -0.269607 l -2.483294,5.151377 v 5.59037 c 0,2.946013 1.26475,4.699489 2.326524,5.651708 1.328357,1.193809 3.130057,1.849909 5.072857,1.849909 3.79903,0 7.83612,-2.629451 7.83612,-7.501617 V 25.651586 Z"
           fill="#929292" />
      </g>
      <path
         stroke="null"
         id="svg_19"
         d="m 164.5119,34.924858 c 0,2.325261 0.81463,4.476844 2.29218,6.059663 1.67497,1.793116 4.0747,2.740277 6.9412,2.740277 v 0.0078 h 4.06233 v -2.752144 h -4.06233 v -0.0078 c -2.08367,0 -3.78817,-0.647019 -4.92846,-1.867079 -0.99993,-1.070864 -1.55076,-2.555489 -1.55076,-4.180726 0,-3.273441 2.22479,-6.587524 6.47922,-6.587524 h 4.25545 l 1.32735,-2.753154 h -5.5828 c -5.9963,0 -9.23338,4.813101 -9.23338,9.340678 z"
         fill="#929292" />
      <polygon
         stroke="null"
         id="svg_20"
         points="132.96928,43.724801 144.93134,43.724801 144.93134,40.972663 134.91182,40.972663 134.91182,35.971748 140.71856,35.971748 140.71856,33.219097 134.91182,33.219097 134.91182,28.337338 144.13993,28.337338 145.46625,25.584185 134.91182,25.584185 134.91182,25.580647 132.15918,25.580647 132.15918,43.722278 132.96928,43.722278 "
         fill="#929292" />
      <path
         stroke="null"
         id="svg_21"
         d="m 181.72554,54.02022 h -1.03502 c -0.465,0 -0.84518,-0.140106 -1.09863,-0.405674 -0.2219,-0.230228 -0.34408,-0.548304 -0.34408,-0.897438 0,-0.704065 0.49604,-1.416967 1.44272,-1.416967 h 2.51106 v -0.574816 h -2.51106 c -1.31045,0 -2.01805,1.027444 -2.01805,1.992035 0,0.497563 0.17949,0.959036 0.50389,1.296799 0.36579,0.379676 0.88885,0.580371 1.51416,0.580371 h 1.03502 c 0.94666,0 1.4422,0.713912 1.4422,1.418482 0,0.349133 -0.12117,0.66721 -0.34256,0.896933 -0.25547,0.265324 -0.63464,0.405177 -1.09939,0.405177 h -2.76452 v 0.574816 h 2.76452 c 0.62581,0 1.14887,-0.200695 1.51416,-0.581381 0.32439,-0.338276 0.50286,-0.798226 0.50286,-1.295798 -2.5e-4,-0.965845 -0.70684,-1.99254 -2.01728,-1.992539 z"
         fill="#929292" />
      <polygon
         stroke="null"
         id="svg_22"
         points="91.529849,54.687938 91.529849,54.113117 89.506776,54.113117 89.506776,51.300145 93.473165,51.300145 93.473165,50.725328 88.932705,50.724318 88.932705,57.86949 89.219491,57.86949 89.219491,57.879082 93.473165,57.879082 93.473165,57.304518 89.506776,57.304518 89.506776,54.687938 "
         fill="#929292" />
      <polygon
         stroke="null"
         id="svg_23"
         points="104.90509,54.687938 104.90509,57.8907 105.47965,57.8907 105.47965,50.724318 104.90509,50.724318 104.90509,54.113117 101.10227,54.113117 101.10227,50.724318 100.52721,50.724318 100.52721,57.8907 101.10227,57.8907 101.10227,54.687938 "
         fill="#929292" />
      <polygon
         stroke="null"
         id="svg_24"
         points="194.08847,57.314866 194.08847,54.687938 196.11181,54.687938 196.11181,54.113117 194.08847,54.113117 194.08847,51.300145 198.05488,51.300145 198.05488,50.725328 194.08847,50.725328 194.08847,50.724318 193.51339,50.724318 193.51339,57.8907 198.05488,57.8907 198.05488,57.314866 "
         fill="#929292" />
      <polygon
         stroke="null"
         id="svg_25"
         points="75.741004,57.294666 75.741004,50.724318 75.165934,50.724318 75.165934,57.86949 79.432232,57.86949 79.432232,57.294666 "
         fill="#929292" />
      <g
         stroke="null"
         id="svg_26">
        <polygon
           stroke="null"
           id="svg_27"
           points="81.041066,57.86949 80.465735,57.86949 80.465735,50.724318 81.041066,50.724318 "
           fill="#929292" />
      </g>
      <g
         stroke="null"
         id="svg_28">
        <polygon
           stroke="null"
           id="svg_29"
           points="114.67366,57.8907 114.0991,57.8907 114.0991,50.724318 114.67366,50.724318 "
           fill="#929292" />
      </g>
      <g
         stroke="null"
         id="svg_30">
        <polygon
           stroke="null"
           id="svg_31"
           points="123.32718,57.8907 122.75185,57.8907 122.75185,50.724318 123.32718,50.724318 "
           fill="#929292" />
      </g>
      <polygon
         stroke="null"
         id="svg_32"
         points="84.927437,57.879082 85.502507,57.879082 85.502507,51.300145 87.874474,51.300145 87.874474,50.725328 82.555983,50.725328 82.555983,51.300145 84.927437,51.300145 "
         fill="#929292" />
      <path
         stroke="null"
         id="svg_33"
         d="m 151.37269,53.570117 c -0.0316,-1.853949 -1.5187,-2.856153 -2.92077,-2.856153 -0.72881,0 -1.40031,0.257497 -1.89282,0.721234 -0.53847,0.506905 -0.82979,1.231674 -0.84898,2.097559 h -0.004 v 1.509361 h 0.001 c 0.006,0.880521 0.29939,1.618167 0.85301,2.131889 0.49352,0.455658 1.16452,0.706085 1.89181,0.706085 1.41697,0 2.92431,-1.004729 2.92431,-2.866505 V 53.57037 h -0.004 z m -0.57153,1.443217 c 0,1.503815 -1.18245,2.291184 -2.34949,2.291184 -0.58138,0 -1.1148,-0.196655 -1.50079,-0.553102 -0.43823,-0.406692 -0.67149,-1.007253 -0.67149,-1.738082 v -1.383891 c 0,-0.746988 0.23326,-1.360931 0.67351,-1.776957 0.3865,-0.363011 0.91865,-0.563454 1.49902,-0.563454 1.16704,0 2.34949,0.803781 2.34949,2.340411 v 1.383891 z"
         fill="#929292" />
      <path
         stroke="null"
         id="svg_34"
         d="m 200.02823,57.900291 c 0.31505,0 0.85049,-0.07145 1.28241,-0.493531 0.39205,-0.379171 0.58921,-0.935807 0.58921,-1.654769 v -5.027674 h -0.57482 v 5.027674 c 0,0.557647 -0.1401,0.975692 -0.41425,1.243036 -0.30976,0.299898 -0.71139,0.335751 -0.92294,0.329439 h -0.87068 v 0.575321 l 0.91107,5.05e-4 h 1e-5 z"
         fill="#929292" />
      <path
         stroke="null"
         id="svg_35"
         d="m 65.063632,50.725326 h -1.977391 v -0.001 h -0.574816 v 7.166632 h 0.574816 v -3.29667 h 1.977391 c 0.625053,0 1.148117,-0.200695 1.513653,-0.580371 0.324145,-0.337762 0.502874,-0.799236 0.502874,-1.296799 0,-0.964339 -0.706842,-1.991783 -2.016527,-1.991782 z m 1.09889,2.88922 c -0.254214,0.26582 -0.634395,0.405674 -1.099142,0.405674 h -1.977391 v -2.720078 h 1.977391 c 0.946664,0 1.441963,0.712902 1.441963,1.416967 2.52e-4,0.349124 -0.12143,0.66721 -0.342821,0.897437 z"
         fill="#929292" />
      <path
         stroke="null"
         id="svg_36"
         d="m 97.383521,51.298122 h 1.839557 v -0.573048 h -1.839557 c -2.008943,0 -3.09244,1.899136 -3.09244,3.686689 0,0.90678 0.265071,1.745396 0.745978,2.362621 0.559667,0.715932 1.37077,1.094093 2.346462,1.094093 h 1.839557 v -0.573048 h -1.839557 c -0.791662,0 -1.445995,-0.301665 -1.892571,-0.873199 -0.402896,-0.516761 -0.625305,-1.230159 -0.625305,-2.01072 2.52e-4,-1.546973 0.864623,-3.113388 2.517876,-3.113388 z"
         fill="#929292" />
      <path
         stroke="null"
         id="svg_37"
         d="m 155.49889,51.300142 h 1.83905 v -0.574816 h -1.83905 c -2.01022,0 -3.09396,1.906711 -3.09396,3.700324 0,0.909801 0.26583,1.752718 0.7475,2.371963 0.55916,0.717952 1.37026,1.096618 2.34646,1.096618 h 1.83905 V 57.31992 h -1.83905 c -0.79191,0 -1.44651,-0.302684 -1.89383,-0.876742 -0.40291,-0.517762 -0.6248,-1.234199 -0.6248,-2.017528 2.5e-4,-1.553538 0.86487,-3.125508 2.51863,-3.125508 z"
         fill="#929292" />
      <path
         stroke="null"
         id="svg_38"
         d="m 164.50205,57.869487 0.82878,-2.167481 h 2.7014 l 0.87673,2.167481 h 0.62026 l -2.90008,-7.174451 -2.74179,7.174451 z m 2.14148,-5.602995 1.1572,2.860698 h -2.25028 z"
         fill="#929292" />
      <path
         stroke="null"
         id="svg_39"
         d="m 140.36765,57.869487 v -3.275461 h 1.87516 l 1.81582,3.275461 h 0.65763 l -1.84613,-3.329233 c 0.39356,-0.08179 0.73158,-0.25976 0.98908,-0.527104 0.32439,-0.337266 0.50286,-0.798731 0.50286,-1.296294 0,-0.964339 -0.70659,-1.992035 -2.01702,-1.992035 l -2.55196,-10e-4 v 7.145423 h 0.57456 v 2.52e-4 z m 0,-6.569345 h 1.97765 c 0.94667,0 1.44221,0.712902 1.44221,1.416967 0,0.349124 -0.12117,0.66721 -0.34307,0.897438 -0.25345,0.26582 -0.63414,0.405674 -1.09914,0.405674 h -1.97765 z"
         fill="#929292" />
      <polygon
         stroke="null"
         id="svg_40"
         points="173.55469,54.256517 175.4927,57.86949 176.0978,57.86949 177.72228,50.733656 177.13256,50.733656 175.69793,57.036422 173.55267,53.037206 171.41876,57.036422 169.99522,50.733656 169.40451,50.733656 171.01788,57.86949 171.62625,57.86949 "
         fill="#929292" />
      <rect
         stroke="null"
         id="svg_41"
         height="7.1444159"
         width="0.57532001"
         fill="#929292"
         y="50.746529"
         x="191.27499" />
      <polygon
         stroke="null"
         id="svg_42"
         points="184.88588,50.746527 184.88588,57.8907 185.46247,57.8907 185.46247,54.542022 189.1628,57.86949 190.02413,57.86949 186.00116,54.255493 189.90572,50.746527 189.04592,50.746527 185.46247,53.968468 185.46247,50.746527 "
         fill="#929292" />
      <path
         stroke="null"
         id="svg_43"
         d="m 73.733313,53.570117 c -0.0313,-1.853949 -1.518955,-2.856153 -2.921025,-2.856153 -0.727041,0 -1.399301,0.257497 -1.892824,0.721234 -0.537961,0.506905 -0.828525,1.231674 -0.849473,2.097559 h -0.0038 v 1.509361 h 10e-4 c 0.0061,0.880521 0.300655,1.618167 0.853765,2.131889 0.49327,0.455658 1.164773,0.706085 1.891309,0.706085 1.417472,0 2.924308,-1.004729 2.924308,-2.866505 V 53.57037 h -0.0033 v -2.52e-4 z m -0.571281,1.443217 c 0,1.503815 -1.182194,2.291184 -2.349997,2.291184 -0.581381,0 -1.114544,-0.196655 -1.500271,-0.553102 -0.438497,-0.406692 -0.670997,-1.007253 -0.670997,-1.738082 v -1.383891 c 0,-0.746988 0.233005,-1.360931 0.67327,-1.776957 0.385483,-0.363011 0.917628,-0.563454 1.498251,-0.563454 1.167802,0 2.349997,0.803781 2.349997,2.340411 v 1.383891 z"
         fill="#929292" />
      <polygon
         stroke="null"
         id="svg_44"
         points="158.82257,50.724318 158.82257,54.697782 158.25127,55.150919 158.25127,55.884519 158.82257,55.430879 158.83291,57.879838 163.08811,57.879838 163.08811,57.305528 159.39763,57.305528 159.39763,54.976739 160.45511,54.138619 160.45511,53.405019 159.39763,54.243133 159.39763,50.724318 "
         fill="#929292" />
      <path
         stroke="null"
         id="svg_45"
         d="m 75.123019,7.776536 h -3.150504 c -0.89062,0 -1.604027,-0.252447 -2.063473,-0.730829 -0.390785,-0.406684 -0.605611,-0.978722 -0.605611,-1.611097 0,-1.257672 0.835334,-2.611777 2.669084,-2.611777 h 13.057666 l 1.32735,-2.752902 H 71.972767 c -3.521587,0 -5.422238,2.764003 -5.422238,5.364679 0,1.346287 0.487724,2.595383 1.373042,3.517808 0.690935,0.719719 1.953918,1.57702 4.049196,1.57702 h 3.150504 c 1.834002,0 2.669092,1.354105 2.669092,2.612291 0,0.63187 -0.215339,1.204152 -0.60562,1.610592 -0.459193,0.478635 -1.1726,0.731073 -2.063473,0.731073 H 63.838521 l -1.327098,2.753154 h 12.611594 c 2.095286,0 3.358513,-0.8573 4.049204,-1.577011 0.885571,-0.921929 1.373042,-2.17153 1.373042,-3.51806 0,-2.600676 -1.900146,-5.36494 -5.422246,-5.36494 z"
         fill="#929292" />
      <polygon
         stroke="null"
         id="svg_46"
         points="102.7308,18.207518 102.7308,7.6874247 99.978143,4.0802535 99.978143,18.207518 "
         fill="#929292" />
      <polygon
         stroke="null"
         id="svg_47"
         points="118.64762,0.015145909 115.85837,0.015145909 109.41222,8.6924019 103.03448,0.015145909 99.617405,0.015145909 109.39934,13.325507 115.89422,4.5833732 115.89422,18.207518 118.64762,18.207518 "
         fill="#929292" />
      <path
         stroke="null"
         id="svg_48"
         d="m 139.39373,7.784868 v 10.422651 h 2.75265 v -7.678082 h 4.30694 l 4.00805,7.678082 h 3.10582 l -4.09035,-7.8346 c 1.24405,-0.279959 2.07029,-0.887843 2.5825,-1.420502 0.88507,-0.921668 1.37305,-2.171269 1.37305,-3.517799 0,-2.600685 -1.90116,-5.364687 -5.42301,-5.364687 h -9.61811 l 1.5596,2.752902 h 8.05851 c 1.83426,0 2.66935,1.353853 2.66935,2.611786 0,0.632366 -0.21559,1.204405 -0.60486,1.611097 -0.45995,0.478373 -1.17387,0.73082 -2.06449,0.73082 z"
         fill="#929292" />
      <polygon
         stroke="null"
         id="svg_49"
         points="179.18672,10.617791 177.10707,10.617791 175.77973,13.370441 180.53375,13.370441 182.89889,18.207518 185.91307,18.207518 185.95399,18.187575 177.07047,0.020450222 168.57472,18.207518 171.61288,18.207518 177.12828,6.4045047 "
         fill="#929292" />
      <g
         stroke="null"
         id="svg_50">
        <path
           stroke="null"
           id="svg_51"
           d="m 182.35564,0.069931 1.56061,2.752902 h 3.39133 v 15.384434 h 2.75265 V 2.822833 h 3.92121 c 3.41733,0 5.20565,3.313578 5.20565,6.586514 0,1.669405 -0.46829,3.186845 -1.31801,4.272362 -0.92092,1.178407 -2.2306,1.775686 -3.88764,1.775686 v 0.0076 h -2.20636 l 1.5596,2.753154 h 0.64701 v -0.0078 c 2.51207,0 4.6066,-0.979732 6.05613,-2.832924 1.22663,-1.567172 1.90217,-3.68695 1.90217,-5.968279 0,-4.527839 -2.78976,-9.339416 -7.9583,-9.339416 h -11.62605 v 2.52e-4 z"
           fill="#929292" />
      </g>
      <polygon
         stroke="null"
         id="svg_52"
         points="191.31992,25.639468 186.98496,33.462201 182.98726,33.462201 182.98726,25.530164 181.64651,25.530164 180.23461,28.459269 180.23461,43.732629 182.98726,43.732629 182.98726,36.214349 187.52089,36.214349 192.08912,43.732629 195.31004,43.732629 189.80577,34.674439 189.80577,34.051155 194.4674,25.639468 "
         fill="#929292" />
      <polygon
         stroke="null"
         id="svg_53"
         points="116.982,54.580901 117.04208,54.647545 117.04916,54.640983 120.64042,57.86949 121.50075,57.86949 117.47907,54.255493 121.40532,50.725328 120.54625,50.725328 116.93909,53.968468 116.93909,50.725328 116.36377,50.725328 116.36377,57.86949 116.93909,57.86949 116.93909,54.542022 "
         fill="#929292" />
      <polygon
         stroke="null"
         id="svg_54"
         points="134.23402,54.256517 136.17228,57.86949 136.77614,57.86949 138.40364,50.725328 137.81418,50.725328 136.37777,57.034909 134.23301,53.037206 132.0986,57.036929 130.67303,50.725328 130.08333,50.725328 131.69772,57.86949 132.30408,57.86949 "
         fill="#929292" />
      <polygon
         stroke="null"
         id="svg_55"
         points="111.85082,57.8907 112.48395,57.8907 112.48395,56.069057 112.48395,50.724318 111.90839,50.724318 111.90839,56.960437 107.61583,50.724318 107.02688,50.724318 107.02688,57.8907 107.6017,57.8907 107.6017,51.716675 "
         fill="#929292" />
    </g>
  </g>
  <g
     aria-label="Komisja ds. Informatyzacji"
     id="text411"
     style="font-size:16px;font-family:Z003;-inkscape-font-specification:Z003;text-align:center;text-anchor:middle;fill:#929292">
    <path
       d="m 12.323216,69.886996 h 0.584 q 0.304,0 0.488,-0.072 0.184,-0.08 0.336,-0.264 l 3.816,-4.32 q 0.16,-0.208 0.336,-0.288 0.176,-0.08 0.432,-0.08 h 1.312 l -4.368,4.936 q -0.16,0.192 -0.312,0.32 -0.144,0.12 -0.312,0.2 0.216,0.072 0.392,0.216 0.176,0.136 0.344,0.36 l 4.56,5.432 h -1.344 q -0.152,0 -0.264,-0.016 -0.104,-0.024 -0.184,-0.064 -0.08,-0.048 -0.144,-0.104 -0.056,-0.064 -0.112,-0.144 l -3.952,-4.552 q -0.16,-0.2 -0.344,-0.28 -0.184,-0.088 -0.56,-0.088 h -0.704 v 5.248 h -1.544 v -11.464 h 1.544 z"
       style="font-family:Lato;-inkscape-font-specification:Lato"
       id="path6120" />
    <path
       d="m 23.85122,68.094996 q 0.888,0 1.6,0.296 0.712,0.296 1.216,0.84 0.504,0.544 0.768,1.32 0.272,0.768 0.272,1.72 0,0.96 -0.272,1.728 -0.264,0.768 -0.768,1.312 -0.504,0.544 -1.216,0.84 -0.712,0.288 -1.6,0.288 -0.896,0 -1.616,-0.288 -0.712,-0.296 -1.216,-0.84 -0.504,-0.544 -0.776,-1.312 -0.264,-0.768 -0.264,-1.728 0,-0.952 0.264,-1.72 0.272,-0.776 0.776,-1.32 0.504,-0.544 1.216,-0.84 0.72,-0.296 1.616,-0.296 z m 0,7.232 q 1.2,0 1.792,-0.8 0.592,-0.808 0.592,-2.248 0,-1.448 -0.592,-2.256 -0.592,-0.808 -1.792,-0.808 -0.608,0 -1.064,0.208 -0.448,0.208 -0.752,0.6 -0.296,0.392 -0.448,0.968 -0.144,0.568 -0.144,1.288 0,1.44 0.592,2.248 0.6,0.8 1.816,0.8 z"
       style="font-family:Lato;-inkscape-font-specification:Lato"
       id="path6122" />
    <path
       d="m 29.507211,76.326996 v -8.104 h 0.856 q 0.304,0 0.376,0.296 l 0.104,0.832 q 0.448,-0.552 1.008,-0.904 0.56,-0.352 1.296,-0.352 0.816,0 1.32,0.456 0.512,0.456 0.736,1.232 0.176,-0.44 0.448,-0.76 0.28,-0.32 0.624,-0.528 0.344,-0.208 0.728,-0.304 0.392,-0.096 0.792,-0.096 0.64,0 1.136,0.208 0.504,0.2 0.848,0.592 0.352,0.392 0.536,0.968 0.184,0.568 0.184,1.304 v 5.16 h -1.432 v -5.16 q 0,-0.952 -0.416,-1.44 -0.416,-0.496 -1.2,-0.496 -0.352,0 -0.672,0.128 -0.312,0.12 -0.552,0.36 -0.24,0.24 -0.384,0.608 -0.136,0.36 -0.136,0.84 v 5.16 h -1.432 v -5.16 q 0,-0.976 -0.392,-1.456 -0.392,-0.48 -1.144,-0.48 -0.528,0 -0.976,0.288 -0.448,0.28 -0.824,0.768 v 6.04 z"
       style="font-family:Lato;-inkscape-font-specification:Lato"
       id="path6124" />
    <path
       d="m 44.171215,68.222996 v 8.104 h -1.424 v -8.104 z m 0.304,-2.544 q 0,0.208 -0.088,0.392 -0.08,0.176 -0.224,0.32 -0.136,0.136 -0.328,0.216 -0.184,0.08 -0.392,0.08 -0.208,0 -0.392,-0.08 -0.176,-0.08 -0.312,-0.216 -0.136,-0.144 -0.216,-0.32 -0.08,-0.184 -0.08,-0.392 0,-0.208 0.08,-0.392 0.08,-0.192 0.216,-0.328 0.136,-0.144 0.312,-0.224 0.184,-0.08 0.392,-0.08 0.208,0 0.392,0.08 0.192,0.08 0.328,0.224 0.144,0.136 0.224,0.328 0.088,0.184 0.088,0.392 z"
       style="font-family:Lato;-inkscape-font-specification:Lato"
       id="path6126" />
    <path
       d="m 51.227211,69.558996 q -0.096,0.176 -0.296,0.176 -0.12,0 -0.272,-0.088 -0.152,-0.088 -0.376,-0.192 -0.216,-0.112 -0.52,-0.2 -0.304,-0.096 -0.72,-0.096 -0.36,0 -0.648,0.096 -0.288,0.088 -0.496,0.248 -0.2,0.16 -0.312,0.376 -0.104,0.208 -0.104,0.456 0,0.312 0.176,0.52 0.184,0.208 0.48,0.36 0.296,0.152 0.672,0.272 0.376,0.112 0.768,0.248 0.4,0.128 0.776,0.288 0.376,0.16 0.672,0.4 0.296,0.24 0.472,0.592 0.184,0.344 0.184,0.832 0,0.56 -0.2,1.04 -0.2,0.472 -0.592,0.824 -0.392,0.344 -0.96,0.544 -0.568,0.2 -1.312,0.2 -0.848,0 -1.536,-0.272 -0.688,-0.28 -1.168,-0.712 l 0.336,-0.544 q 0.064,-0.104 0.152,-0.16 0.088,-0.056 0.224,-0.056 0.144,0 0.304,0.112 0.16,0.112 0.384,0.248 0.232,0.136 0.56,0.248 0.328,0.112 0.816,0.112 0.416,0 0.728,-0.104 0.312,-0.112 0.52,-0.296 0.208,-0.184 0.304,-0.424 0.104,-0.24 0.104,-0.512 0,-0.336 -0.184,-0.552 -0.176,-0.224 -0.472,-0.376 -0.296,-0.16 -0.68,-0.272 -0.376,-0.12 -0.776,-0.248 -0.392,-0.128 -0.776,-0.288 -0.376,-0.168 -0.672,-0.416 -0.296,-0.248 -0.48,-0.608 -0.176,-0.368 -0.176,-0.888 0,-0.464 0.192,-0.888 0.192,-0.432 0.56,-0.752 0.368,-0.328 0.904,-0.52 0.536,-0.192 1.224,-0.192 0.8,0 1.432,0.256 0.64,0.248 1.104,0.688 z"
       style="font-family:Lato;-inkscape-font-specification:Lato"
       id="path6128" />
    <path
       d="m 54.93922,68.222996 v 8.704 q 0,0.488 -0.128,0.904 -0.128,0.424 -0.408,0.736 -0.28,0.312 -0.72,0.488 -0.432,0.184 -1.04,0.184 -0.256,0 -0.472,-0.04 -0.216,-0.04 -0.432,-0.12 l 0.056,-0.768 q 0.016,-0.072 0.056,-0.112 0.032,-0.032 0.096,-0.04 0.064,-0.008 0.168,-0.008 0.096,0.008 0.248,0.008 0.624,0 0.888,-0.296 0.264,-0.288 0.264,-0.936 v -8.704 z m 0.296,-2.544 q 0,0.208 -0.088,0.392 -0.08,0.176 -0.224,0.32 -0.136,0.136 -0.32,0.216 -0.184,0.08 -0.392,0.08 -0.208,0 -0.392,-0.08 -0.176,-0.08 -0.312,-0.216 -0.136,-0.144 -0.216,-0.32 -0.08,-0.184 -0.08,-0.392 0,-0.208 0.08,-0.392 0.08,-0.192 0.216,-0.328 0.136,-0.144 0.312,-0.224 0.184,-0.08 0.392,-0.08 0.208,0 0.392,0.08 0.184,0.08 0.32,0.224 0.144,0.136 0.224,0.328 0.088,0.184 0.088,0.392 z"
       style="font-family:Lato;-inkscape-font-specification:Lato"
       id="path6130" />
    <path
       d="m 61.667217,72.678996 q -0.984,0.032 -1.68,0.16 -0.688,0.12 -1.128,0.32 -0.432,0.2 -0.632,0.472 -0.192,0.272 -0.192,0.608 0,0.32 0.104,0.552 0.104,0.232 0.28,0.384 0.184,0.144 0.424,0.216 0.248,0.064 0.528,0.064 0.376,0 0.688,-0.072 0.312,-0.08 0.584,-0.224 0.28,-0.144 0.528,-0.344 0.256,-0.2 0.496,-0.456 z m -4.6,-3.312 q 0.672,-0.648 1.448,-0.968 0.776,-0.32 1.72,-0.32 0.68,0 1.208,0.224 0.528,0.224 0.888,0.624 0.36,0.4 0.544,0.968 0.184,0.568 0.184,1.248 v 5.184 h -0.632 q -0.208,0 -0.32,-0.064 -0.112,-0.072 -0.176,-0.272 l -0.16,-0.768 q -0.32,0.296 -0.624,0.528 -0.304,0.224 -0.64,0.384 -0.336,0.152 -0.72,0.232 -0.376,0.088 -0.84,0.088 -0.472,0 -0.888,-0.128 -0.416,-0.136 -0.728,-0.4 -0.304,-0.264 -0.488,-0.664 -0.176,-0.408 -0.176,-0.96 0,-0.48 0.264,-0.92 0.264,-0.448 0.856,-0.792 0.592,-0.344 1.544,-0.56 0.952,-0.224 2.336,-0.256 v -0.632 q 0,-0.944 -0.408,-1.424 -0.408,-0.488 -1.192,-0.488 -0.528,0 -0.888,0.136 -0.352,0.128 -0.616,0.296 -0.256,0.16 -0.448,0.296 -0.184,0.128 -0.368,0.128 -0.144,0 -0.248,-0.072 -0.104,-0.08 -0.176,-0.192 z"
       style="font-family:Lato;-inkscape-font-specification:Lato"
       id="path6132" />
    <path
       d="m 74.603221,70.150996 q -0.4,-0.536 -0.864,-0.744 -0.464,-0.216 -1.04,-0.216 -1.128,0 -1.736,0.808 -0.608,0.808 -0.608,2.304 0,0.792 0.136,1.36 0.136,0.56 0.4,0.928 0.264,0.36 0.648,0.528 0.384,0.168 0.872,0.168 0.704,0 1.224,-0.32 0.528,-0.32 0.968,-0.904 z m 1.424,-5.608 v 11.784 h -0.848 q -0.304,0 -0.384,-0.296 l -0.128,-0.984 q -0.52,0.624 -1.184,1.008 -0.664,0.384 -1.536,0.384 -0.696,0 -1.264,-0.264 -0.568,-0.272 -0.968,-0.792 -0.4,-0.52 -0.616,-1.296 -0.216,-0.776 -0.216,-1.784 0,-0.896 0.24,-1.664 0.24,-0.776 0.688,-1.344 0.448,-0.568 1.096,-0.888 0.656,-0.328 1.472,-0.328 0.744,0 1.272,0.256 0.536,0.248 0.952,0.696 v -4.488 z"
       style="font-family:Lato;-inkscape-font-specification:Lato"
       id="path6134" />
    <path
       d="m 83.003212,69.558996 q -0.096,0.176 -0.296,0.176 -0.12,0 -0.272,-0.088 -0.152,-0.088 -0.376,-0.192 -0.216,-0.112 -0.52,-0.2 -0.304,-0.096 -0.72,-0.096 -0.36,0 -0.648,0.096 -0.288,0.088 -0.496,0.248 -0.2,0.16 -0.312,0.376 -0.104,0.208 -0.104,0.456 0,0.312 0.176,0.52 0.184,0.208 0.48,0.36 0.296,0.152 0.672,0.272 0.376,0.112 0.768,0.248 0.4,0.128 0.776,0.288 0.376,0.16 0.672,0.4 0.296,0.24 0.472,0.592 0.184,0.344 0.184,0.832 0,0.56 -0.2,1.04 -0.2,0.472 -0.592,0.824 -0.392,0.344 -0.96,0.544 -0.568,0.2 -1.312,0.2 -0.848,0 -1.536,-0.272 -0.688,-0.28 -1.168,-0.712 l 0.336,-0.544 q 0.064,-0.104 0.152,-0.16 0.088,-0.056 0.224,-0.056 0.144,0 0.304,0.112 0.16,0.112 0.384,0.248 0.232,0.136 0.56,0.248 0.328,0.112 0.816,0.112 0.416,0 0.728,-0.104 0.312,-0.112 0.52,-0.296 0.208,-0.184 0.304,-0.424 0.104,-0.24 0.104,-0.512 0,-0.336 -0.184,-0.552 -0.176,-0.224 -0.472,-0.376 -0.296,-0.16 -0.68,-0.272 -0.376,-0.12 -0.776,-0.248 -0.392,-0.128 -0.776,-0.288 -0.376,-0.168 -0.672,-0.416 -0.296,-0.248 -0.48,-0.608 -0.176,-0.368 -0.176,-0.888 0,-0.464 0.192,-0.888 0.192,-0.432 0.56,-0.752 0.368,-0.328 0.904,-0.52 0.536,-0.192 1.224,-0.192 0.8,0 1.432,0.256 0.64,0.248 1.104,0.688 z"
       style="font-family:Lato;-inkscape-font-specification:Lato"
       id="path6136" />
    <path
       d="m 84.971221,75.446996 q 0,-0.208 0.072,-0.392 0.08,-0.184 0.208,-0.32 0.136,-0.136 0.32,-0.216 0.184,-0.08 0.392,-0.08 0.208,0 0.392,0.08 0.184,0.08 0.32,0.216 0.136,0.136 0.216,0.32 0.08,0.184 0.08,0.392 0,0.216 -0.08,0.4 -0.08,0.176 -0.216,0.312 -0.136,0.136 -0.32,0.208 -0.184,0.08 -0.392,0.08 -0.208,0 -0.392,-0.08 -0.184,-0.072 -0.32,-0.208 -0.128,-0.136 -0.208,-0.312 -0.072,-0.184 -0.072,-0.4 z"
       style="font-family:Lato;-inkscape-font-specification:Lato"
       id="path6138" />
    <path
       d="m 94.971231,76.326996 h -1.552 v -11.464 h 1.552 z"
       style="font-family:Lato;-inkscape-font-specification:Lato"
       id="path6140" />
    <path
       d="m 98.787247,69.398996 q 0.264,-0.296 0.56,-0.536 0.296,-0.24 0.624,-0.408 0.336003,-0.176 0.704003,-0.264 0.376,-0.096 0.808,-0.096 0.664,0 1.168,0.224 0.512,0.216 0.848,0.624 0.344,0.4 0.52,0.968 0.176,0.568 0.176,1.256 v 5.16 h -1.432 v -5.16 q 0,-0.92 -0.424,-1.424 -0.416,-0.512 -1.272,-0.512 -0.632,0 -1.184003,0.304 -0.544,0.304 -1.008,0.824 v 5.968 h -1.432 v -8.104 h 0.856 q 0.304,0 0.376,0.296 z"
       style="font-family:Lato;-inkscape-font-specification:Lato"
       id="path6142" />
    <path
       d="m 106.77126,76.326996 v -6.888 l -0.896,-0.104 q -0.168,-0.04 -0.28,-0.12 -0.104,-0.088 -0.104,-0.248 v -0.584 h 1.28 v -0.784 q 0,-0.696 0.192,-1.232 0.2,-0.544 0.56,-0.912 0.368,-0.376 0.88,-0.568 0.512,-0.192 1.152,-0.192 0.544,0 1,0.16 l -0.032,0.712 q -0.016,0.192 -0.216,0.208 -0.192,0.016 -0.52,0.016 -0.368,0 -0.672,0.096 -0.296,0.096 -0.512,0.312 -0.216,0.216 -0.336,0.568 -0.112,0.352 -0.112,0.872 v 0.744 h 2.336 v 1.032 h -2.288 v 6.912 z"
       style="font-family:Lato;-inkscape-font-specification:Lato"
       id="path6144" />
    <path
       d="m 115.00326,68.094996 q 0.888,0 1.6,0.296 0.712,0.296 1.216,0.84 0.504,0.544 0.768,1.32 0.272,0.768 0.272,1.72 0,0.96 -0.272,1.728 -0.264,0.768 -0.768,1.312 -0.504,0.544 -1.216,0.84 -0.712,0.288 -1.6,0.288 -0.896,0 -1.616,-0.288 -0.712,-0.296 -1.216,-0.84 -0.504,-0.544 -0.776,-1.312 -0.264,-0.768 -0.264,-1.728 0,-0.952 0.264,-1.72 0.272,-0.776 0.776,-1.32 0.504,-0.544 1.216,-0.84 0.72,-0.296 1.616,-0.296 z m 0,7.232 q 1.2,0 1.792,-0.8 0.592,-0.808 0.592,-2.248 0,-1.448 -0.592,-2.256 -0.592,-0.808 -1.792,-0.808 -0.608,0 -1.064,0.208 -0.448,0.208 -0.752,0.6 -0.296,0.392 -0.448,0.968 -0.144,0.568 -0.144,1.288 0,1.44 0.592,2.248 0.6,0.8 1.816,0.8 z"
       style="font-family:Lato;-inkscape-font-specification:Lato"
       id="path6146" />
    <path
       d="m 122.01125,69.846996 q 0.384,-0.832 0.944,-1.296 0.56,-0.472 1.368,-0.472 0.256,0 0.488,0.056 0.24,0.056 0.424,0.176 l -0.104,1.064 q -0.048,0.2 -0.24,0.2 -0.112,0 -0.328,-0.048 -0.216,-0.048 -0.488,-0.048 -0.384,0 -0.688,0.112 -0.296,0.112 -0.536,0.336 -0.232,0.216 -0.424,0.544 -0.184,0.32 -0.336,0.736 v 5.12 h -1.432 v -8.104 h 0.816 q 0.232,0 0.32,0.088 0.088,0.088 0.12,0.304 z"
       style="font-family:Lato;-inkscape-font-specification:Lato"
       id="path6148" />
    <path
       d="m 126.48326,76.326996 v -8.104 h 0.856 q 0.304,0 0.376,0.296 l 0.104,0.832 q 0.448,-0.552 1.008,-0.904 0.56,-0.352 1.296,-0.352 0.816,0 1.32,0.456 0.512,0.456 0.736,1.232 0.176,-0.44 0.448,-0.76 0.28,-0.32 0.624,-0.528 0.344,-0.208 0.728,-0.304 0.392,-0.096 0.792,-0.096 0.64,0 1.136,0.208 0.504,0.2 0.848,0.592 0.352,0.392 0.536,0.968 0.184,0.568 0.184,1.304 v 5.16 h -1.432 v -5.16 q 0,-0.952 -0.416,-1.44 -0.416,-0.496 -1.2,-0.496 -0.352,0 -0.672,0.128 -0.312,0.12 -0.552,0.36 -0.24,0.24 -0.384,0.608 -0.136,0.36 -0.136,0.84 v 5.16 h -1.432 v -5.16 q 0,-0.976 -0.392,-1.456 -0.392,-0.48 -1.144,-0.48 -0.528,0 -0.976,0.288 -0.448,0.28 -0.824,0.768 v 6.04 z"
       style="font-family:Lato;-inkscape-font-specification:Lato"
       id="path6150" />
    <path
       d="m 144.03526,72.678996 q -0.984,0.032 -1.68,0.16 -0.688,0.12 -1.128,0.32 -0.432,0.2 -0.632,0.472 -0.192,0.272 -0.192,0.608 0,0.32 0.104,0.552 0.104,0.232 0.28,0.384 0.184,0.144 0.424,0.216 0.248,0.064 0.528,0.064 0.376,0 0.688,-0.072 0.312,-0.08 0.584,-0.224 0.28,-0.144 0.528,-0.344 0.256,-0.2 0.496,-0.456 z m -4.6,-3.312 q 0.672,-0.648 1.448,-0.968 0.776,-0.32 1.72,-0.32 0.68,0 1.208,0.224 0.528,0.224 0.888,0.624 0.36,0.4 0.544,0.968 0.184,0.568 0.184,1.248 v 5.184 h -0.632 q -0.208,0 -0.32,-0.064 -0.112,-0.072 -0.176,-0.272 l -0.16,-0.768 q -0.32,0.296 -0.624,0.528 -0.304,0.224 -0.64,0.384 -0.336,0.152 -0.72,0.232 -0.376,0.088 -0.84,0.088 -0.472,0 -0.888,-0.128 -0.416,-0.136 -0.728,-0.4 -0.304,-0.264 -0.488,-0.664 -0.176,-0.408 -0.176,-0.96 0,-0.48 0.264,-0.92 0.264,-0.448 0.856,-0.792 0.592,-0.344 1.544,-0.56 0.952,-0.224 2.336,-0.256 v -0.632 q 0,-0.944 -0.408,-1.424 -0.408,-0.488 -1.192,-0.488 -0.528,0 -0.888,0.136 -0.352,0.128 -0.616,0.296 -0.256,0.16 -0.448,0.296 -0.184,0.128 -0.368,0.128 -0.144,0 -0.248,-0.072 -0.104,-0.08 -0.176,-0.192 z"
       style="font-family:Lato;-inkscape-font-specification:Lato"
       id="path6152" />
    <path
       d="m 149.97925,76.454996 q -0.96,0 -1.48,-0.536 -0.512,-0.536 -0.512,-1.544 v -4.96 h -0.976 q -0.128,0 -0.216,-0.072 -0.088,-0.08 -0.088,-0.24 v -0.568 l 1.328,-0.168 0.328,-2.504 q 0.024,-0.12 0.104,-0.192 0.088,-0.08 0.224,-0.08 h 0.72 v 2.792 h 2.344 v 1.032 h -2.344 v 4.864 q 0,0.512 0.248,0.76 0.248,0.248 0.64,0.248 0.224,0 0.384,-0.056 0.168,-0.064 0.288,-0.136 0.12,-0.072 0.2,-0.128 0.088,-0.064 0.152,-0.064 0.112,0 0.2,0.136 l 0.416,0.68 q -0.368,0.344 -0.888,0.544 -0.52,0.192 -1.072,0.192 z"
       style="font-family:Lato;-inkscape-font-specification:Lato"
       id="path6154" />
    <path
       d="m 160.21924,68.222996 -4.52,10.496 q -0.072,0.16 -0.184,0.256 -0.104,0.096 -0.328,0.096 h -1.056 l 1.48,-3.216 -3.344,-7.632 h 1.232 q 0.184,0 0.288,0.096 0.112,0.088 0.152,0.2 l 2.168,5.104 q 0.128,0.336 0.216,0.704 0.112,-0.376 0.24,-0.712 l 2.104,-5.096 q 0.048,-0.128 0.16,-0.208 0.12,-0.088 0.264,-0.088 z"
       style="font-family:Lato;-inkscape-font-specification:Lato"
       id="path6156" />
    <path
       d="m 167.06723,68.830996 q 0,0.152 -0.056,0.296 -0.048,0.144 -0.136,0.248 l -4.392,5.84 h 4.432 v 1.112 h -6.104 v -0.592 q 0,-0.104 0.048,-0.24 0.048,-0.144 0.144,-0.272 l 4.416,-5.88 h -4.36 v -1.12 h 6.008 z"
       style="font-family:Lato;-inkscape-font-specification:Lato"
       id="path6158" />
    <path
       d="m 173.09922,72.678996 q -0.984,0.032 -1.68,0.16 -0.688,0.12 -1.128,0.32 -0.432,0.2 -0.632,0.472 -0.192,0.272 -0.192,0.608 0,0.32 0.104,0.552 0.104,0.232 0.28,0.384 0.184,0.144 0.424,0.216 0.248,0.064 0.528,0.064 0.376,0 0.688,-0.072 0.312,-0.08 0.584,-0.224 0.28,-0.144 0.528,-0.344 0.256,-0.2 0.496,-0.456 z m -4.6,-3.312 q 0.672,-0.648 1.448,-0.968 0.776,-0.32 1.72,-0.32 0.68,0 1.208,0.224 0.528,0.224 0.888,0.624 0.36,0.4 0.544,0.968 0.184,0.568 0.184,1.248 v 5.184 h -0.632 q -0.208,0 -0.32,-0.064 -0.112,-0.072 -0.176,-0.272 l -0.16,-0.768 q -0.32,0.296 -0.624,0.528 -0.304,0.224 -0.64,0.384 -0.336,0.152 -0.72,0.232 -0.376,0.088 -0.84,0.088 -0.472,0 -0.888,-0.128 -0.416,-0.136 -0.728,-0.4 -0.304,-0.264 -0.488,-0.664 -0.176,-0.408 -0.176,-0.96 0,-0.48 0.264,-0.92 0.264,-0.448 0.856,-0.792 0.592,-0.344 1.544,-0.56 0.952,-0.224 2.336,-0.256 v -0.632 q 0,-0.944 -0.408,-1.424 -0.408,-0.488 -1.192,-0.488 -0.528,0 -0.888,0.136 -0.352,0.128 -0.616,0.296 -0.256,0.16 -0.448,0.296 -0.184,0.128 -0.368,0.128 -0.144,0 -0.248,-0.072 -0.104,-0.08 -0.176,-0.192 z"
       style="font-family:Lato;-inkscape-font-specification:Lato"
       id="path6160" />
    <path
       d="m 182.29922,69.662996 q -0.064,0.088 -0.128,0.136 -0.064,0.048 -0.176,0.048 -0.12,0 -0.264,-0.096 -0.144,-0.104 -0.36,-0.224 -0.208,-0.12 -0.52,-0.216 -0.304,-0.104 -0.752,-0.104 -0.6,0 -1.056,0.216 -0.456,0.208 -0.768,0.608 -0.304,0.4 -0.464,0.968 -0.152,0.568 -0.152,1.272 0,0.736 0.168,1.312 0.168,0.568 0.472,0.96 0.312,0.384 0.744,0.592 0.44,0.2 0.984,0.2 0.52,0 0.856,-0.12 0.336,-0.128 0.552,-0.28 0.224,-0.152 0.368,-0.272 0.152,-0.128 0.296,-0.128 0.176,0 0.272,0.136 l 0.4,0.52 q -0.264,0.328 -0.6,0.56 -0.336,0.232 -0.728,0.392 -0.384,0.152 -0.808,0.224 -0.424,0.072 -0.864,0.072 -0.76,0 -1.416,-0.28 -0.648,-0.28 -1.128,-0.808 -0.48,-0.536 -0.752,-1.312 -0.272,-0.776 -0.272,-1.768 0,-0.904 0.248,-1.672 0.256,-0.768 0.736,-1.32 0.488,-0.56 1.192,-0.872 0.712,-0.312 1.632,-0.312 0.856,0 1.504,0.28 0.656,0.272 1.16,0.776 z"
       style="font-family:Lato;-inkscape-font-specification:Lato"
       id="path6162" />
    <path
       d="m 185.80323,68.222996 v 8.704 q 0,0.488 -0.128,0.904 -0.128,0.424 -0.408,0.736 -0.28,0.312 -0.72,0.488 -0.432,0.184 -1.04,0.184 -0.256,0 -0.472,-0.04 -0.216,-0.04 -0.432,-0.12 l 0.056,-0.768 q 0.016,-0.072 0.056,-0.112 0.032,-0.032 0.096,-0.04 0.064,-0.008 0.168,-0.008 0.096,0.008 0.248,0.008 0.624,0 0.888,-0.296 0.264,-0.288 0.264,-0.936 v -8.704 z m 0.296,-2.544 q 0,0.208 -0.088,0.392 -0.08,0.176 -0.224,0.32 -0.136,0.136 -0.32,0.216 -0.184,0.08 -0.392,0.08 -0.208,0 -0.392,-0.08 -0.176,-0.08 -0.312,-0.216 -0.136,-0.144 -0.216,-0.32 -0.08,-0.184 -0.08,-0.392 0,-0.208 0.08,-0.392 0.08,-0.192 0.216,-0.328 0.136,-0.144 0.312,-0.224 0.184,-0.08 0.392,-0.08 0.208,0 0.392,0.08 0.184,0.08 0.32,0.224 0.144,0.136 0.224,0.328 0.088,0.184 0.088,0.392 z"
       style="font-family:Lato;-inkscape-font-specification:Lato"
       id="path6164" />
    <path
       d="m 189.64323,68.222996 v 8.104 h -1.424 v -8.104 z m 0.304,-2.544 q 0,0.208 -0.088,0.392 -0.08,0.176 -0.224,0.32 -0.136,0.136 -0.328,0.216 -0.184,0.08 -0.392,0.08 -0.208,0 -0.392,-0.08 -0.176,-0.08 -0.312,-0.216 -0.136,-0.144 -0.216,-0.32 -0.08,-0.184 -0.08,-0.392 0,-0.208 0.08,-0.392 0.08,-0.192 0.216,-0.328 0.136,-0.144 0.312,-0.224 0.184,-0.08 0.392,-0.08 0.208,0 0.392,0.08 0.192,0.08 0.328,0.224 0.144,0.136 0.224,0.328 0.088,0.184 0.088,0.392 z"
       style="font-family:Lato;-inkscape-font-specification:Lato"
       id="path6166" />
  </g>
</svg>
